<svg xmlns="http://www.w3.org/2000/svg" xmlns:xlink="http://www.w3.org/1999/xlink" width="500" zoomAndPan="magnify" viewBox="0 0 375 374.999991" height="500" preserveAspectRatio="xMidYMid meet" version="1.0"><defs><g/><clipPath id="74a283807d"><path d="M 26 0.121094 L 54 0.121094 L 54 29 L 26 29 Z M 26 0.121094 " clip-rule="nonzero"/></clipPath><clipPath id="067c4521e3"><path d="M 158 0.121094 L 186 0.121094 L 186 29 L 158 29 Z M 158 0.121094 " clip-rule="nonzero"/></clipPath><clipPath id="f5bcc1c982"><path d="M 262 0.121094 L 281 0.121094 L 281 29 L 262 29 Z M 262 0.121094 " clip-rule="nonzero"/></clipPath><clipPath id="bf89700985"><rect x="0" width="289" y="0" height="39"/></clipPath><clipPath id="61c57714ab"><path d="M 56 3 L 279 3 L 279 262 L 56 262 Z M 56 3 " clip-rule="nonzero"/></clipPath><clipPath id="4bbc667b9b"><path d="M 368.703125 140.28125 L 176.195312 316.523438 L -0.046875 124.015625 L 192.460938 -52.226562 Z M 368.703125 140.28125 " clip-rule="nonzero"/></clipPath><clipPath id="0e85ba3890"><path d="M 368.703125 140.28125 L 176.195312 316.523438 L -0.046875 124.015625 L 192.460938 -52.226562 Z M 368.703125 140.28125 " clip-rule="nonzero"/></clipPath><clipPath id="2f045fccd2"><path d="M 77 23 L 296 23 L 296 241 L 77 241 Z M 77 23 " clip-rule="nonzero"/></clipPath><clipPath id="8152002c73"><path d="M 368.703125 140.28125 L 176.195312 316.523438 L -0.046875 124.015625 L 192.460938 -52.226562 Z M 368.703125 140.28125 " clip-rule="nonzero"/></clipPath><clipPath id="ae4f192117"><path d="M 368.703125 140.28125 L 176.195312 316.523438 L -0.046875 124.015625 L 192.460938 -52.226562 Z M 368.703125 140.28125 " clip-rule="nonzero"/></clipPath><clipPath id="cb83bd4596"><path d="M 97 43 L 276 43 L 276 204 L 97 204 Z M 97 43 " clip-rule="nonzero"/></clipPath><clipPath id="3cb39dceb8"><path d="M 368.703125 140.28125 L 176.195312 316.523438 L -0.046875 124.015625 L 192.460938 -52.226562 Z M 368.703125 140.28125 " clip-rule="nonzero"/></clipPath><clipPath id="cb432840fb"><path d="M 368.703125 140.28125 L 176.195312 316.523438 L -0.046875 124.015625 L 192.460938 -52.226562 Z M 368.703125 140.28125 " clip-rule="nonzero"/></clipPath><clipPath id="0da087932e"><path d="M 57 3 L 279 3 L 279 262 L 57 262 Z M 57 3 " clip-rule="nonzero"/></clipPath><clipPath id="8204916d31"><path d="M 341.667969 138.996094 L 178.476562 288.394531 L 29.074219 125.207031 L 192.265625 -24.195312 Z M 341.667969 138.996094 " clip-rule="nonzero"/></clipPath><clipPath id="20445bceeb"><path d="M 368.835938 140.609375 L 176.328125 316.851562 L 0.0820312 124.34375 L 192.589844 -51.902344 Z M 368.835938 140.609375 " clip-rule="nonzero"/></clipPath><clipPath id="b7a892f6f4"><path d="M 77 23 L 296 23 L 296 242 L 77 242 Z M 77 23 " clip-rule="nonzero"/></clipPath><clipPath id="c6ff6ef2a4"><path d="M 341.667969 138.996094 L 178.476562 288.394531 L 29.074219 125.207031 L 192.265625 -24.195312 Z M 341.667969 138.996094 " clip-rule="nonzero"/></clipPath><clipPath id="b473a35363"><path d="M 368.835938 140.609375 L 176.328125 316.851562 L 0.0820312 124.34375 L 192.589844 -51.902344 Z M 368.835938 140.609375 " clip-rule="nonzero"/></clipPath><clipPath id="2693daf259"><path d="M 97 43 L 276 43 L 276 204 L 97 204 Z M 97 43 " clip-rule="nonzero"/></clipPath><clipPath id="0bfdb38d53"><path d="M 341.667969 138.996094 L 178.476562 288.394531 L 29.074219 125.207031 L 192.265625 -24.195312 Z M 341.667969 138.996094 " clip-rule="nonzero"/></clipPath><clipPath id="716733c068"><path d="M 368.835938 140.609375 L 176.328125 316.851562 L 0.0820312 124.34375 L 192.589844 -51.902344 Z M 368.835938 140.609375 " clip-rule="nonzero"/></clipPath><clipPath id="ea0e67d747"><path d="M 150 100 L 250 100 L 250 182.714844 L 150 182.714844 Z M 150 100 " clip-rule="nonzero"/></clipPath><clipPath id="730872d39c"><path d="M 134 67.214844 L 217 67.214844 L 217 150 L 134 150 Z M 134 67.214844 " clip-rule="nonzero"/></clipPath><clipPath id="b4cd65655a"><path d="M 88.078125 6.367188 L 92.203125 6.367188 L 92.203125 10.492188 L 88.078125 10.492188 Z M 88.078125 6.367188 " clip-rule="nonzero"/></clipPath><clipPath id="af127905b0"><path d="M 90.140625 6.367188 C 89.003906 6.367188 88.078125 7.292969 88.078125 8.429688 C 88.078125 9.570312 89.003906 10.492188 90.140625 10.492188 C 91.28125 10.492188 92.203125 9.570312 92.203125 8.429688 C 92.203125 7.292969 91.28125 6.367188 90.140625 6.367188 Z M 90.140625 6.367188 " clip-rule="nonzero"/></clipPath><clipPath id="486f3c76e3"><path d="M 0.078125 0.367188 L 4.203125 0.367188 L 4.203125 4.492188 L 0.078125 4.492188 Z M 0.078125 0.367188 " clip-rule="nonzero"/></clipPath><clipPath id="91ae101a02"><path d="M 2.140625 0.367188 C 1.003906 0.367188 0.078125 1.292969 0.078125 2.429688 C 0.078125 3.570312 1.003906 4.492188 2.140625 4.492188 C 3.28125 4.492188 4.203125 3.570312 4.203125 2.429688 C 4.203125 1.292969 3.28125 0.367188 2.140625 0.367188 Z M 2.140625 0.367188 " clip-rule="nonzero"/></clipPath><clipPath id="b064c43371"><rect x="0" width="5" y="0" height="5"/></clipPath><clipPath id="fdc5adab95"><path d="M 0 0.199219 L 242.640625 0.199219 L 242.640625 15.800781 L 0 15.800781 Z M 0 0.199219 " clip-rule="nonzero"/></clipPath><clipPath id="f62d47440e"><rect x="0" width="243" y="0" height="16"/></clipPath><clipPath id="09b8c4d244"><path d="M 163.328125 5.476562 L 167.453125 5.476562 L 167.453125 9.601562 L 163.328125 9.601562 Z M 163.328125 5.476562 " clip-rule="nonzero"/></clipPath><clipPath id="bd2f103484"><path d="M 165.390625 5.476562 C 164.253906 5.476562 163.328125 6.402344 163.328125 7.539062 C 163.328125 8.679688 164.253906 9.601562 165.390625 9.601562 C 166.53125 9.601562 167.453125 8.679688 167.453125 7.539062 C 167.453125 6.402344 166.53125 5.476562 165.390625 5.476562 Z M 165.390625 5.476562 " clip-rule="nonzero"/></clipPath><clipPath id="55fc1cbba3"><path d="M 0.328125 0.476562 L 4.453125 0.476562 L 4.453125 4.601562 L 0.328125 4.601562 Z M 0.328125 0.476562 " clip-rule="nonzero"/></clipPath><clipPath id="a9355f8739"><path d="M 2.390625 0.476562 C 1.253906 0.476562 0.328125 1.402344 0.328125 2.539062 C 0.328125 3.679688 1.253906 4.601562 2.390625 4.601562 C 3.53125 4.601562 4.453125 3.679688 4.453125 2.539062 C 4.453125 1.402344 3.53125 0.476562 2.390625 0.476562 Z M 2.390625 0.476562 " clip-rule="nonzero"/></clipPath><clipPath id="b40774abcd"><rect x="0" width="5" y="0" height="5"/></clipPath><clipPath id="6db4f1ef30"><rect x="0" width="243" y="0" height="16"/></clipPath></defs><g transform="matrix(1, 0, 0, 1, 46, 279)"><g clip-path="url(#bf89700985)"><g fill="#7b7b7b" fill-opacity="1"><g transform="translate(1.130583, 27.688739)"><g><path d="M 15.90625 -26.265625 L 15.90625 -20.1875 L 9.234375 -20.1875 C 8.859375 -20.1875 8.523438 -20.101562 8.234375 -19.9375 C 7.941406 -19.78125 7.796875 -19.5 7.796875 -19.09375 C 7.796875 -18.738281 8.046875 -18.335938 8.546875 -17.890625 C 9.046875 -17.441406 9.820312 -16.878906 10.875 -16.203125 C 11.875 -15.554688 12.785156 -14.910156 13.609375 -14.265625 C 14.441406 -13.628906 15.148438 -12.976562 15.734375 -12.3125 C 16.328125 -11.65625 16.785156 -10.957031 17.109375 -10.21875 C 17.429688 -9.476562 17.59375 -8.6875 17.59375 -7.84375 C 17.59375 -6.519531 17.441406 -5.40625 17.140625 -4.5 C 16.835938 -3.601562 16.363281 -2.84375 15.71875 -2.21875 C 14.914062 -1.414062 13.867188 -0.84375 12.578125 -0.5 C 11.296875 -0.164062 9.851562 0 8.25 0 L 1.3125 0 L 1.3125 -6.078125 L 8.21875 -6.078125 C 8.863281 -6.078125 9.410156 -6.1875 9.859375 -6.40625 C 10.316406 -6.632812 10.546875 -7 10.546875 -7.5 C 10.546875 -7.976562 10.273438 -8.46875 9.734375 -8.96875 C 9.191406 -9.46875 8.382812 -10.078125 7.3125 -10.796875 C 6.289062 -11.472656 5.390625 -12.128906 4.609375 -12.765625 C 3.835938 -13.410156 3.191406 -14.050781 2.671875 -14.6875 C 2.160156 -15.320312 1.773438 -15.976562 1.515625 -16.65625 C 1.253906 -17.332031 1.125 -18.054688 1.125 -18.828125 C 1.125 -20.054688 1.316406 -21.132812 1.703125 -22.0625 C 2.085938 -22.988281 2.628906 -23.765625 3.328125 -24.390625 C 4.035156 -25.015625 4.867188 -25.484375 5.828125 -25.796875 C 6.796875 -26.109375 7.851562 -26.265625 9 -26.265625 Z M 15.90625 -26.265625 "/></g></g></g><g clip-path="url(#74a283807d)"><g fill="#7b7b7b" fill-opacity="1"><g transform="translate(25.442997, 27.688739)"><g><path d="M 27.953125 -13.125 C 27.953125 -11.25 27.597656 -9.484375 26.890625 -7.828125 C 26.191406 -6.179688 25.234375 -4.742188 24.015625 -3.515625 C 22.804688 -2.296875 21.390625 -1.328125 19.765625 -0.609375 C 18.140625 0.0976562 16.414062 0.453125 14.59375 0.453125 C 12.71875 0.453125 10.96875 0.09375 9.34375 -0.625 C 7.71875 -1.351562 6.300781 -2.335938 5.09375 -3.578125 C 3.894531 -4.816406 2.953125 -6.253906 2.265625 -7.890625 C 1.578125 -9.535156 1.234375 -11.28125 1.234375 -13.125 C 1.234375 -15 1.582031 -16.757812 2.28125 -18.40625 C 2.988281 -20.0625 3.945312 -21.503906 5.15625 -22.734375 C 6.375 -23.960938 7.796875 -24.929688 9.421875 -25.640625 C 11.046875 -26.359375 12.769531 -26.71875 14.59375 -26.71875 C 16.488281 -26.71875 18.25 -26.347656 19.875 -25.609375 C 21.507812 -24.867188 22.925781 -23.878906 24.125 -22.640625 C 25.320312 -21.398438 26.257812 -19.953125 26.9375 -18.296875 C 27.613281 -16.648438 27.953125 -14.925781 27.953125 -13.125 Z M 14.59375 -6.234375 C 15.570312 -6.234375 16.472656 -6.421875 17.296875 -6.796875 C 18.117188 -7.171875 18.828125 -7.675781 19.421875 -8.3125 C 20.023438 -8.945312 20.492188 -9.679688 20.828125 -10.515625 C 21.171875 -11.359375 21.34375 -12.226562 21.34375 -13.125 C 21.34375 -14.03125 21.179688 -14.894531 20.859375 -15.71875 C 20.535156 -16.539062 20.070312 -17.269531 19.46875 -17.90625 C 18.863281 -18.550781 18.144531 -19.066406 17.3125 -19.453125 C 16.476562 -19.835938 15.5625 -20.03125 14.5625 -20.03125 C 13.582031 -20.03125 12.675781 -19.835938 11.84375 -19.453125 C 11.019531 -19.066406 10.316406 -18.550781 9.734375 -17.90625 C 9.148438 -17.269531 8.6875 -16.539062 8.34375 -15.71875 C 8.007812 -14.894531 7.84375 -14.03125 7.84375 -13.125 C 7.84375 -12.226562 8.007812 -11.359375 8.34375 -10.515625 C 8.6875 -9.679688 9.15625 -8.945312 9.75 -8.3125 C 10.351562 -7.675781 11.066406 -7.171875 11.890625 -6.796875 C 12.710938 -6.421875 13.613281 -6.234375 14.59375 -6.234375 Z M 14.59375 -6.234375 "/></g></g></g></g><g fill="#7b7b7b" fill-opacity="1"><g transform="translate(60.185209, 27.688739)"><g><path d="M 8.4375 -26.265625 L 8.4375 -8.96875 C 8.4375 -7.96875 8.660156 -7.269531 9.109375 -6.875 C 9.566406 -6.488281 10.40625 -6.296875 11.625 -6.296875 L 16.25 -6.296875 L 16.25 0 L 11.03125 0 C 7.90625 0 5.601562 -0.660156 4.125 -1.984375 C 2.644531 -3.316406 1.90625 -5.421875 1.90625 -8.296875 L 1.90625 -26.265625 Z M 8.4375 -26.265625 "/></g></g></g><g fill="#7b7b7b" fill-opacity="1"><g transform="translate(82.396655, 27.688739)"><g><path d="M 8.484375 -26.265625 L 8.484375 0 L 1.953125 0 L 1.953125 -26.265625 Z M 8.484375 -26.265625 "/></g></g></g><g fill="#7b7b7b" fill-opacity="1"><g transform="translate(98.380241, 27.688739)"><g><path d="M 9 -26.265625 C 11.082031 -26.265625 13.003906 -25.941406 14.765625 -25.296875 C 16.523438 -24.660156 18.039062 -23.757812 19.3125 -22.59375 C 20.59375 -21.4375 21.59375 -20.035156 22.3125 -18.390625 C 23.039062 -16.753906 23.40625 -14.925781 23.40625 -12.90625 C 23.40625 -11.03125 23.078125 -9.300781 22.421875 -7.71875 C 21.773438 -6.144531 20.867188 -4.789062 19.703125 -3.65625 C 18.546875 -2.519531 17.160156 -1.625 15.546875 -0.96875 C 13.929688 -0.320312 12.160156 0 10.234375 0 L 10.234375 -6.296875 C 11.191406 -6.296875 12.066406 -6.484375 12.859375 -6.859375 C 13.660156 -7.234375 14.347656 -7.722656 14.921875 -8.328125 C 15.503906 -8.929688 15.953125 -9.625 16.265625 -10.40625 C 16.578125 -11.195312 16.734375 -12.003906 16.734375 -12.828125 C 16.734375 -15.078125 16.023438 -16.820312 14.609375 -18.0625 C 13.203125 -19.300781 11.222656 -19.929688 8.671875 -19.953125 L 8.671875 0 L 2.140625 0 L 2.140625 -26.265625 Z M 9 -26.265625 "/></g></g></g><g fill="#7b7b7b" fill-opacity="1"><g transform="translate(128.958038, 27.688739)"><g><path d="M 8.40625 -26.265625 L 8.40625 -8.859375 C 8.40625 -8.023438 8.628906 -7.316406 9.078125 -6.734375 C 9.523438 -6.148438 10.3125 -5.859375 11.4375 -5.859375 C 12.5625 -5.859375 13.347656 -6.148438 13.796875 -6.734375 C 14.253906 -7.316406 14.484375 -8.023438 14.484375 -8.859375 L 14.484375 -26.265625 L 21.015625 -26.265625 L 21.015625 -9.296875 C 21.015625 -7.847656 20.796875 -6.523438 20.359375 -5.328125 C 19.921875 -4.128906 19.285156 -3.101562 18.453125 -2.25 C 17.628906 -1.394531 16.628906 -0.726562 15.453125 -0.25 C 14.273438 0.21875 12.9375 0.453125 11.4375 0.453125 C 9.9375 0.453125 8.59375 0.21875 7.40625 -0.25 C 6.21875 -0.726562 5.21875 -1.398438 4.40625 -2.265625 C 3.59375 -3.128906 2.96875 -4.160156 2.53125 -5.359375 C 2.09375 -6.566406 1.875 -7.90625 1.875 -9.375 L 1.875 -26.265625 Z M 8.40625 -26.265625 "/></g></g></g><g clip-path="url(#067c4521e3)"><g fill="#7b7b7b" fill-opacity="1"><g transform="translate(157.434867, 27.688739)"><g><path d="M 14.484375 -9.265625 L 14.671875 -9.265625 L 16.546875 -21.6875 C 16.691406 -22.632812 16.898438 -23.425781 17.171875 -24.0625 C 17.453125 -24.695312 17.796875 -25.210938 18.203125 -25.609375 C 18.617188 -26.015625 19.082031 -26.300781 19.59375 -26.46875 C 20.113281 -26.632812 20.6875 -26.71875 21.3125 -26.71875 C 22.03125 -26.71875 22.675781 -26.640625 23.25 -26.484375 C 23.832031 -26.335938 24.332031 -26.066406 24.75 -25.671875 C 25.175781 -25.285156 25.519531 -24.742188 25.78125 -24.046875 C 26.050781 -23.347656 26.25 -22.4375 26.375 -21.3125 L 28.515625 0 L 22.28125 0 L 21.125 -21.390625 L 21.046875 -21.390625 C 20.816406 -19.535156 20.414062 -17.109375 19.84375 -14.109375 C 19.269531 -11.109375 18.59375 -7.378906 17.8125 -2.921875 C 17.644531 -1.972656 17.265625 -1.171875 16.671875 -0.515625 C 16.085938 0.128906 15.382812 0.453125 14.5625 0.453125 C 13.78125 0.453125 13.082031 0.15625 12.46875 -0.4375 C 11.863281 -1.039062 11.445312 -1.992188 11.21875 -3.296875 L 8.0625 -20.78125 L 7.984375 -20.78125 L 6.859375 0 L 0.640625 0 L 2.78125 -21.421875 C 2.875 -22.523438 3.054688 -23.421875 3.328125 -24.109375 C 3.609375 -24.796875 3.960938 -25.332031 4.390625 -25.71875 C 4.816406 -26.101562 5.316406 -26.363281 5.890625 -26.5 C 6.460938 -26.644531 7.113281 -26.71875 7.84375 -26.71875 C 10.519531 -26.71875 12.09375 -25.128906 12.5625 -21.953125 Z M 14.484375 -9.265625 "/></g></g></g></g><g fill="#7b7b7b" fill-opacity="1"><g transform="translate(192.177078, 27.688739)"><g/></g></g><g fill="#7b7b7b" fill-opacity="1"><g transform="translate(208.160664, 27.688739)"><g><path d="M 12.234375 -26.265625 C 13.804688 -26.265625 15.09375 -25.953125 16.09375 -25.328125 C 17.09375 -24.703125 17.59375 -23.597656 17.59375 -22.015625 C 17.59375 -20.816406 16.867188 -19.492188 15.421875 -18.046875 C 14.691406 -17.316406 14.132812 -16.765625 13.75 -16.390625 C 13.363281 -16.015625 13.132812 -15.78125 13.0625 -15.6875 C 13.90625 -15.507812 14.6875 -15.203125 15.40625 -14.765625 C 16.132812 -14.328125 16.75 -13.796875 17.25 -13.171875 C 17.75 -12.546875 18.144531 -11.835938 18.4375 -11.046875 C 18.726562 -10.253906 18.875 -9.410156 18.875 -8.515625 C 18.875 -5.742188 18.046875 -3.628906 16.390625 -2.171875 C 14.742188 -0.722656 12.421875 0 9.421875 0 L 1.390625 0 L 1.390625 -6.078125 L 9.5625 -6.078125 C 10.613281 -6.078125 11.375 -6.269531 11.84375 -6.65625 C 12.320312 -7.039062 12.5625 -7.710938 12.5625 -8.671875 C 12.5625 -9.335938 12.367188 -9.910156 11.984375 -10.390625 C 11.597656 -10.867188 11.09375 -11.109375 10.46875 -11.109375 L 4.765625 -11.109375 L 4.765625 -14.9375 L 10.765625 -20.328125 L 2.09375 -20.328125 L 2.09375 -26.265625 Z M 12.234375 -26.265625 "/></g></g></g><g fill="#7b7b7b" fill-opacity="1"><g transform="translate(234.574046, 27.688739)"><g><path d="M 16.25 -26.265625 L 9.53125 -13.65625 C 8.851562 -12.40625 8.320312 -11.410156 7.9375 -10.671875 C 7.550781 -9.929688 7.359375 -9.25 7.359375 -8.625 C 7.359375 -7.851562 7.613281 -7.195312 8.125 -6.65625 C 8.632812 -6.125 9.300781 -5.859375 10.125 -5.859375 C 11.175781 -5.859375 11.957031 -6.148438 12.46875 -6.734375 C 12.988281 -7.316406 13.25 -8.085938 13.25 -9.046875 C 13.25 -9.960938 12.953125 -10.679688 12.359375 -11.203125 C 11.773438 -11.734375 11.054688 -12.023438 10.203125 -12.078125 L 13.546875 -17.9375 C 15.367188 -17.207031 16.820312 -16.085938 17.90625 -14.578125 C 19 -13.066406 19.546875 -11.296875 19.546875 -9.265625 C 19.546875 -7.816406 19.328125 -6.488281 18.890625 -5.28125 C 18.453125 -4.082031 17.816406 -3.054688 16.984375 -2.203125 C 16.160156 -1.359375 15.160156 -0.703125 13.984375 -0.234375 C 12.816406 0.222656 11.503906 0.453125 10.046875 0.453125 C 8.722656 0.453125 7.507812 0.234375 6.40625 -0.203125 C 5.3125 -0.640625 4.363281 -1.265625 3.5625 -2.078125 C 2.757812 -2.890625 2.140625 -3.859375 1.703125 -4.984375 C 1.265625 -6.109375 1.046875 -7.347656 1.046875 -8.703125 C 1.046875 -9.429688 1.21875 -10.347656 1.5625 -11.453125 C 1.914062 -12.566406 2.429688 -13.765625 3.109375 -15.046875 L 9.109375 -26.265625 Z M 16.25 -26.265625 "/></g></g></g><g clip-path="url(#f5bcc1c982)"><g fill="#7b7b7b" fill-opacity="1"><g transform="translate(260.987428, 27.688739)"><g><path d="M 19.625 -8.625 C 19.625 -7.375 19.40625 -6.195312 18.96875 -5.09375 C 18.53125 -4 17.90625 -3.035156 17.09375 -2.203125 C 16.28125 -1.378906 15.3125 -0.726562 14.1875 -0.25 C 13.0625 0.21875 11.804688 0.453125 10.421875 0.453125 C 9.046875 0.453125 7.796875 0.222656 6.671875 -0.234375 C 5.546875 -0.703125 4.578125 -1.347656 3.765625 -2.171875 C 2.953125 -2.992188 2.328125 -3.957031 1.890625 -5.0625 C 1.453125 -6.164062 1.234375 -7.351562 1.234375 -8.625 L 1.234375 -17.625 C 1.234375 -18.90625 1.457031 -20.09375 1.90625 -21.1875 C 2.363281 -22.289062 2.988281 -23.253906 3.78125 -24.078125 C 4.582031 -24.910156 5.550781 -25.554688 6.6875 -26.015625 C 7.832031 -26.484375 9.078125 -26.71875 10.421875 -26.71875 C 11.804688 -26.71875 13.066406 -26.476562 14.203125 -26 C 15.335938 -25.519531 16.304688 -24.867188 17.109375 -24.046875 C 17.910156 -23.222656 18.53125 -22.257812 18.96875 -21.15625 C 19.40625 -20.0625 19.625 -18.882812 19.625 -17.625 Z M 7.546875 -9.078125 C 7.546875 -7.953125 7.765625 -7.09375 8.203125 -6.5 C 8.640625 -5.914062 9.378906 -5.625 10.421875 -5.625 C 11.472656 -5.625 12.21875 -5.914062 12.65625 -6.5 C 13.09375 -7.09375 13.3125 -7.953125 13.3125 -9.078125 L 13.3125 -17.328125 C 13.3125 -18.453125 13.101562 -19.304688 12.6875 -19.890625 C 12.28125 -20.484375 11.515625 -20.78125 10.390625 -20.78125 C 9.410156 -20.78125 8.691406 -20.503906 8.234375 -19.953125 C 7.773438 -19.410156 7.546875 -18.535156 7.546875 -17.328125 Z M 7.546875 -9.078125 "/></g></g></g></g></g></g><g clip-path="url(#61c57714ab)"><g clip-path="url(#4bbc667b9b)"><g clip-path="url(#0e85ba3890)"><path fill="#f15c00" d="M 268.871094 222.554688 C 271.378906 225.296875 271.203125 229.570312 268.332031 231.933594 C 250.414062 246.699219 228.808594 256.390625 205.773438 259.925781 C 180.515625 263.800781 154.679688 260.101562 131.527344 249.292969 C 108.375 238.484375 88.945312 221.050781 75.699219 199.203125 C 62.453125 177.351562 55.984375 152.066406 57.113281 126.539062 C 58.238281 101.011719 66.90625 76.390625 82.027344 55.792969 C 97.144531 35.195312 118.03125 19.539062 142.046875 10.8125 C 166.058594 2.082031 192.125 0.671875 216.941406 6.757812 C 239.574219 12.304688 260.242188 23.863281 276.792969 40.148438 C 279.441406 42.757812 279.242188 47.027344 276.5 49.539062 C 273.757812 52.046875 269.515625 51.84375 266.851562 49.253906 C 252.109375 34.921875 233.78125 24.746094 213.734375 19.828125 C 191.503906 14.378906 168.15625 15.644531 146.644531 23.460938 C 125.132812 31.28125 106.421875 45.304688 92.878906 63.757812 C 79.335938 82.210938 71.566406 104.265625 70.558594 127.132812 C 69.550781 150 75.347656 172.652344 87.210938 192.222656 C 99.078125 211.796875 116.480469 227.414062 137.222656 237.097656 C 157.960938 246.777344 181.105469 250.09375 203.730469 246.621094 C 224.132812 243.492188 243.285156 234.96875 259.230469 221.988281 C 262.113281 219.640625 266.359375 219.8125 268.871094 222.554688 Z M 268.871094 222.554688 " fill-opacity="1" fill-rule="nonzero"/></g></g></g><g clip-path="url(#2f045fccd2)"><g clip-path="url(#8152002c73)"><g clip-path="url(#ae4f192117)"><path fill="#f15c00" d="M 181.621094 235.539062 C 181.480469 238.675781 178.824219 241.121094 175.699219 240.820312 C 156.183594 238.9375 137.492188 231.824219 121.628906 220.179688 C 104.234375 207.414062 91.015625 189.777344 83.644531 169.496094 C 76.273438 149.21875 75.082031 127.210938 80.21875 106.253906 C 85.359375 85.296875 96.59375 66.335938 112.507812 51.765625 C 128.425781 37.195312 148.300781 27.671875 169.628906 24.398438 C 190.957031 21.125 212.773438 24.25 232.328125 33.378906 C 251.878906 42.503906 268.28125 57.226562 279.46875 75.675781 C 289.667969 92.503906 295.109375 111.746094 295.265625 131.355469 C 295.292969 134.496094 292.625 136.925781 289.488281 136.785156 C 286.351562 136.648438 283.9375 133.992188 283.894531 130.855469 C 283.648438 113.496094 278.78125 96.476562 269.746094 81.570312 C 259.726562 65.039062 245.03125 51.855469 227.515625 43.675781 C 210.003906 35.5 190.457031 32.703125 171.351562 35.632812 C 152.25 38.566406 134.441406 47.097656 120.183594 60.148438 C 105.929688 73.199219 95.863281 90.1875 91.261719 108.960938 C 86.65625 127.730469 87.726562 147.449219 94.328125 165.613281 C 100.929688 183.78125 112.773438 199.578125 128.355469 211.015625 C 142.40625 221.328125 158.929688 227.675781 176.203125 229.445312 C 179.324219 229.769531 181.757812 232.40625 181.621094 235.539062 Z M 181.621094 235.539062 " fill-opacity="1" fill-rule="nonzero"/></g></g></g><g clip-path="url(#cb83bd4596)"><g clip-path="url(#3cb39dceb8)"><g clip-path="url(#cb432840fb)"><path fill="#f15c00" d="M 137.757812 201.3125 C 136.289062 203.410156 133.390625 203.929688 131.371094 202.351562 C 118.769531 192.5 109.027344 179.414062 103.214844 164.449219 C 96.84375 148.042969 95.480469 130.113281 99.296875 112.929688 C 103.113281 95.746094 111.941406 80.082031 124.664062 67.914062 C 137.382812 55.746094 153.425781 47.625 170.761719 44.578125 C 188.097656 41.527344 205.949219 43.6875 222.058594 50.785156 C 238.164062 57.882812 251.808594 69.59375 261.257812 84.445312 C 270.710938 99.296875 275.542969 116.613281 275.152344 134.210938 C 274.796875 150.261719 270.105469 165.886719 261.617188 179.445312 C 260.257812 181.617188 257.355469 182.117188 255.261719 180.648438 C 253.164062 179.179688 252.667969 176.292969 254.011719 174.117188 C 261.453125 162.0625 265.566406 148.21875 265.882812 134.003906 C 266.234375 118.242188 261.902344 102.726562 253.4375 89.425781 C 244.96875 76.121094 232.75 65.628906 218.320312 59.269531 C 203.890625 52.914062 187.898438 50.980469 172.367188 53.710938 C 156.839844 56.441406 142.46875 63.714844 131.070312 74.617188 C 119.675781 85.515625 111.769531 99.546875 108.347656 114.941406 C 104.929688 130.332031 106.152344 146.394531 111.859375 161.09375 C 117.007812 174.347656 125.597656 185.957031 136.703125 194.746094 C 138.710938 196.335938 139.226562 199.214844 137.757812 201.3125 Z M 137.757812 201.3125 " fill-opacity="1" fill-rule="nonzero"/></g></g></g><g clip-path="url(#0da087932e)"><g clip-path="url(#8204916d31)"><g clip-path="url(#20445bceeb)"><path fill="#7b7b7b" d="M 269 222.882812 C 271.511719 225.621094 271.335938 229.894531 268.464844 232.257812 C 250.546875 247.027344 228.941406 256.71875 205.90625 260.253906 C 180.648438 264.128906 154.8125 260.429688 131.660156 249.621094 C 108.507812 238.808594 89.078125 221.378906 75.832031 199.527344 C 62.585938 177.679688 56.117188 152.390625 57.246094 126.863281 C 58.371094 101.335938 67.039062 76.71875 82.160156 56.121094 C 97.277344 35.519531 118.164062 19.867188 142.175781 11.136719 C 166.191406 2.410156 192.253906 1 217.070312 7.082031 C 239.707031 12.632812 260.375 24.1875 276.925781 40.476562 C 279.574219 43.082031 279.375 47.355469 276.632812 49.863281 C 273.890625 52.375 269.648438 52.171875 266.980469 49.578125 C 252.242188 35.246094 233.914062 25.070312 213.867188 20.15625 C 191.636719 14.707031 168.289062 15.96875 146.777344 23.789062 C 125.261719 31.609375 106.554688 45.628906 93.011719 64.082031 C 79.46875 82.535156 71.699219 104.589844 70.691406 127.457031 C 69.683594 150.324219 75.476562 172.976562 87.34375 192.550781 C 99.210938 212.125 116.613281 227.738281 137.351562 237.421875 C 158.09375 247.105469 181.238281 250.417969 203.863281 246.949219 C 224.265625 243.816406 243.417969 235.292969 259.363281 222.316406 C 262.246094 219.96875 266.492188 220.140625 269 222.882812 Z M 269 222.882812 " fill-opacity="1" fill-rule="nonzero"/></g></g></g><g clip-path="url(#b7a892f6f4)"><g clip-path="url(#c6ff6ef2a4)"><g clip-path="url(#b473a35363)"><path fill="#7b7b7b" d="M 181.753906 235.867188 C 181.613281 239.003906 178.957031 241.449219 175.832031 241.148438 C 156.316406 239.265625 137.625 232.148438 121.761719 220.507812 C 104.367188 207.738281 91.148438 190.101562 83.777344 169.824219 C 76.40625 149.542969 75.214844 127.535156 80.351562 106.578125 C 85.492188 85.625 96.726562 66.660156 112.640625 52.089844 C 128.554688 37.519531 148.433594 27.996094 169.761719 24.726562 C 191.089844 21.453125 212.90625 24.578125 232.457031 33.703125 C 252.007812 42.832031 268.414062 57.550781 279.601562 76.003906 C 289.800781 92.832031 295.242188 112.074219 295.398438 131.683594 C 295.425781 134.820312 292.753906 137.25 289.621094 137.113281 C 286.484375 136.976562 284.070312 134.320312 284.027344 131.179688 C 283.78125 113.820312 278.914062 96.800781 269.878906 81.894531 C 259.859375 65.367188 245.164062 52.179688 227.648438 44.003906 C 210.136719 35.828125 190.589844 33.027344 171.484375 35.960938 C 152.378906 38.890625 134.574219 47.421875 120.316406 60.476562 C 106.0625 73.527344 95.996094 90.511719 91.394531 109.285156 C 86.789062 128.058594 87.859375 147.773438 94.460938 165.941406 C 101.0625 184.105469 112.90625 199.90625 128.488281 211.34375 C 142.539062 221.65625 159.0625 228.003906 176.335938 229.773438 C 179.457031 230.09375 181.890625 232.730469 181.753906 235.867188 Z M 181.753906 235.867188 " fill-opacity="1" fill-rule="nonzero"/></g></g></g><g clip-path="url(#2693daf259)"><g clip-path="url(#0bfdb38d53)"><g clip-path="url(#716733c068)"><path fill="#7b7b7b" d="M 137.890625 201.640625 C 136.421875 203.738281 133.519531 204.253906 131.503906 202.675781 C 118.898438 192.828125 109.160156 179.742188 103.347656 164.777344 C 96.976562 148.367188 95.613281 130.4375 99.429688 113.253906 C 103.246094 96.070312 112.074219 80.40625 124.792969 68.242188 C 137.515625 56.074219 153.558594 47.953125 170.894531 44.902344 C 188.230469 41.855469 206.082031 44.015625 222.1875 51.113281 C 238.296875 58.207031 251.941406 69.921875 261.390625 84.773438 C 270.839844 99.621094 275.675781 116.941406 275.285156 134.539062 C 274.929688 150.585938 270.238281 166.210938 261.75 179.773438 C 260.390625 181.941406 257.488281 182.445312 255.390625 180.976562 C 253.296875 179.503906 252.800781 176.621094 254.144531 174.441406 C 261.585938 162.390625 265.699219 148.546875 266.015625 134.332031 C 266.367188 118.566406 262.035156 103.054688 253.566406 89.75 C 245.101562 76.449219 232.878906 65.953125 218.449219 59.597656 C 204.019531 53.242188 188.03125 51.304688 172.5 54.035156 C 156.96875 56.769531 142.597656 64.042969 131.203125 74.941406 C 119.808594 85.839844 111.902344 99.875 108.480469 115.265625 C 105.0625 130.660156 106.285156 146.71875 111.992188 161.417969 C 117.140625 174.671875 125.726562 186.285156 136.835938 195.074219 C 138.84375 196.660156 139.359375 199.542969 137.890625 201.640625 Z M 137.890625 201.640625 " fill-opacity="1" fill-rule="nonzero"/></g></g></g><g clip-path="url(#ea0e67d747)"><path fill="#f15c00" d="M 185.578125 182.945312 C 176.636719 182.945312 167.691406 182.996094 158.742188 182.921875 C 155.292969 182.894531 152.351562 180.660156 151.371094 177.664062 C 150.269531 174.308594 151.148438 170.605469 154.066406 168.789062 C 155.71875 167.765625 157.9375 167.238281 159.90625 167.222656 C 176.027344 167.09375 192.144531 167.203125 208.269531 167.121094 C 220.828125 167.054688 230.753906 158.765625 233.238281 146.496094 C 236.292969 131.417969 224.714844 116.914062 209.253906 116.671875 C 198.125 116.5 186.996094 116.636719 175.867188 116.625 C 172.441406 116.621094 169.871094 115.113281 168.300781 112.054688 C 166.898438 109.308594 166.902344 106.300781 169.011719 104.207031 C 170.707031 102.523438 173.328125 100.828125 175.566406 100.789062 C 187.933594 100.578125 200.339844 100.285156 212.660156 101.144531 C 230.242188 102.371094 244.867188 115.777344 248.675781 132.933594 C 254.339844 158.457031 235.144531 182.664062 208.972656 182.9375 C 201.179688 183.015625 193.378906 182.945312 185.578125 182.945312 Z M 185.578125 182.945312 " fill-opacity="1" fill-rule="nonzero"/></g><g clip-path="url(#730872d39c)"><path fill="#f15c00" d="M 190.738281 149.222656 C 183.46875 149.222656 176.113281 149.945312 168.953125 149.078125 C 151.4375 146.960938 136.332031 130.867188 134.488281 113.300781 C 132.523438 94.554688 143.515625 76.652344 160.664062 70.167969 C 168.398438 67.25 176.347656 67.226562 184.339844 67.539062 C 188.597656 67.703125 191.679688 71.378906 191.648438 75.453125 C 191.617188 79.523438 188.523438 83 184.289062 83.367188 C 181.394531 83.617188 178.46875 83.457031 175.554688 83.480469 C 161.511719 83.585938 150.375 94.117188 150.207031 108.113281 C 150.03125 122.496094 160.917969 133.121094 174.011719 133.671875 C 184.601562 134.117188 195.226562 133.820312 205.835938 133.863281 C 207.082031 133.867188 208.34375 133.859375 209.570312 134.023438 C 213.765625 134.589844 216.820312 138.199219 216.570312 142.199219 C 216.316406 146.265625 212.988281 149.660156 208.84375 149.746094 C 202.8125 149.863281 196.773438 149.773438 190.742188 149.773438 C 190.742188 149.59375 190.742188 149.40625 190.738281 149.222656 Z M 190.738281 149.222656 " fill-opacity="1" fill-rule="nonzero"/></g><g transform="matrix(1, 0, 0, 1, 66, 313)"><g clip-path="url(#6db4f1ef30)"><g clip-path="url(#b4cd65655a)"><g clip-path="url(#af127905b0)"><g transform="matrix(1, 0, 0, 1, 88, 6)"><g clip-path="url(#b064c43371)"><g clip-path="url(#486f3c76e3)"><g clip-path="url(#91ae101a02)"><path fill="#5b5b5b" d="M 0.078125 0.367188 L 4.203125 0.367188 L 4.203125 4.492188 L 0.078125 4.492188 Z M 0.078125 0.367188 " fill-opacity="1" fill-rule="nonzero"/></g></g></g></g></g></g><g clip-path="url(#fdc5adab95)"><g><g clip-path="url(#f62d47440e)"><g fill="#f15c00" fill-opacity="1"><g transform="translate(0.799591, 12.260997)"><g><path d="M 2.71875 -6.6875 L 4.046875 -6.8125 C 4.046875 -7.070312 4.019531 -7.34375 3.96875 -7.625 C 3.925781 -7.914062 3.835938 -8.1875 3.703125 -8.4375 C 3.566406 -8.675781 3.378906 -8.867188 3.140625 -9.015625 C 2.898438 -9.171875 2.578125 -9.242188 2.171875 -9.234375 C 1.847656 -9.234375 1.570312 -9.164062 1.34375 -9.03125 C 1.125 -8.90625 0.945312 -8.742188 0.8125 -8.546875 C 0.664062 -8.335938 0.5625 -8.101562 0.5 -7.84375 C 0.4375 -7.59375 0.40625 -7.347656 0.40625 -7.109375 C 0.40625 -6.859375 0.441406 -6.613281 0.515625 -6.375 C 0.648438 -5.894531 0.875 -5.421875 1.1875 -4.953125 C 1.332031 -4.722656 1.472656 -4.503906 1.609375 -4.296875 C 1.753906 -4.085938 1.894531 -3.882812 2.03125 -3.6875 C 2.09375 -3.601562 2.148438 -3.515625 2.203125 -3.421875 C 2.253906 -3.328125 2.3125 -3.234375 2.375 -3.140625 C 2.476562 -2.960938 2.5625 -2.785156 2.625 -2.609375 C 2.6875 -2.441406 2.71875 -2.285156 2.71875 -2.140625 C 2.71875 -1.847656 2.675781 -1.601562 2.59375 -1.40625 C 2.507812 -1.21875 2.367188 -1.125 2.171875 -1.125 C 2.035156 -1.125 1.925781 -1.171875 1.84375 -1.265625 C 1.757812 -1.359375 1.695312 -1.476562 1.65625 -1.625 C 1.601562 -1.769531 1.570312 -1.9375 1.5625 -2.125 C 1.550781 -2.3125 1.546875 -2.5 1.546875 -2.6875 L 0.21875 -2.5625 C 0.21875 -2.21875 0.238281 -1.882812 0.28125 -1.5625 C 0.332031 -1.25 0.425781 -0.96875 0.5625 -0.71875 C 0.695312 -0.46875 0.890625 -0.269531 1.140625 -0.125 C 1.398438 0.0195312 1.742188 0.09375 2.171875 0.09375 C 2.535156 0.09375 2.835938 0.03125 3.078125 -0.09375 C 3.316406 -0.21875 3.507812 -0.382812 3.65625 -0.59375 C 3.800781 -0.8125 3.898438 -1.054688 3.953125 -1.328125 C 4.015625 -1.597656 4.046875 -1.890625 4.046875 -2.203125 C 4.046875 -2.453125 4.003906 -2.691406 3.921875 -2.921875 C 3.847656 -3.160156 3.753906 -3.394531 3.640625 -3.625 C 3.523438 -3.863281 3.390625 -4.097656 3.234375 -4.328125 C 3.085938 -4.554688 2.9375 -4.789062 2.78125 -5.03125 C 2.65625 -5.21875 2.53125 -5.398438 2.40625 -5.578125 C 2.28125 -5.765625 2.164062 -5.945312 2.0625 -6.125 C 1.96875 -6.289062 1.890625 -6.453125 1.828125 -6.609375 C 1.765625 -6.773438 1.734375 -6.941406 1.734375 -7.109375 C 1.734375 -7.367188 1.765625 -7.582031 1.828125 -7.75 C 1.890625 -7.914062 2.007812 -8.003906 2.1875 -8.015625 C 2.289062 -8.015625 2.378906 -7.972656 2.453125 -7.890625 C 2.523438 -7.816406 2.582031 -7.71875 2.625 -7.59375 C 2.664062 -7.457031 2.691406 -7.3125 2.703125 -7.15625 C 2.710938 -7 2.71875 -6.84375 2.71875 -6.6875 Z M 2.71875 -6.6875 "/></g></g></g><g fill="#f15c00" fill-opacity="1"><g transform="translate(5.227209, 12.260997)"><g><path d="M 0.03125 -7.765625 L 1.296875 -7.765625 L 1.296875 0 L 2.640625 0 L 2.640625 -7.765625 L 3.90625 -7.765625 L 3.90625 -9.140625 L 0.03125 -9.140625 Z M 0.03125 -7.765625 "/></g></g></g><g fill="#f15c00" fill-opacity="1"><g transform="translate(9.319031, 12.260997)"><g><path d="M 2.890625 0 L 4.234375 0 L 3.390625 -4.421875 C 3.640625 -4.597656 3.820312 -4.875 3.9375 -5.25 C 4.0625 -5.632812 4.125 -6.050781 4.125 -6.5 C 4.125 -7.363281 3.941406 -8.019531 3.578125 -8.46875 C 3.222656 -8.914062 2.644531 -9.140625 1.84375 -9.140625 L 0.5 -9.140625 L 0.5 0 L 1.84375 0 L 1.84375 -3.859375 L 2.203125 -3.859375 Z M 1.84375 -5.09375 L 1.84375 -7.8125 C 1.9375 -7.8125 2.039062 -7.800781 2.15625 -7.78125 C 2.269531 -7.769531 2.375 -7.71875 2.46875 -7.625 C 2.570312 -7.539062 2.65625 -7.40625 2.71875 -7.21875 C 2.789062 -7.03125 2.828125 -6.773438 2.828125 -6.453125 C 2.828125 -6.128906 2.789062 -5.878906 2.71875 -5.703125 C 2.65625 -5.523438 2.570312 -5.390625 2.46875 -5.296875 C 2.375 -5.210938 2.269531 -5.15625 2.15625 -5.125 C 2.039062 -5.101562 1.9375 -5.09375 1.84375 -5.09375 Z M 1.84375 -5.09375 "/></g></g></g><g fill="#f15c00" fill-opacity="1"><g transform="translate(13.970512, 12.260997)"><g><path d="M 0.125 0 L 1.4375 0 L 1.671875 -1.859375 L 2.96875 -1.859375 L 3.21875 0 L 4.53125 0 L 3.140625 -9.140625 L 1.5 -9.140625 Z M 2.40625 -6.171875 L 2.78125 -3.28125 L 1.859375 -3.28125 L 2.25 -6.171875 L 2.28125 -6.40625 L 2.359375 -6.40625 Z M 2.40625 -6.171875 "/></g></g></g><g fill="#f15c00" fill-opacity="1"><g transform="translate(18.783674, 12.260997)"><g><path d="M 0.03125 -7.765625 L 1.296875 -7.765625 L 1.296875 0 L 2.640625 0 L 2.640625 -7.765625 L 3.90625 -7.765625 L 3.90625 -9.140625 L 0.03125 -9.140625 Z M 0.03125 -7.765625 "/></g></g></g><g fill="#f15c00" fill-opacity="1"><g transform="translate(22.875496, 12.260997)"><g><path d="M 0.5 -9.140625 L 0.5 0 L 3.5625 0 L 3.5625 -1.375 L 1.84375 -1.375 L 1.84375 -3.890625 L 3.078125 -3.890625 L 3.078125 -5.359375 L 1.84375 -5.359375 L 1.84375 -7.765625 L 3.5625 -7.765625 L 3.5625 -9.140625 Z M 0.5 -9.140625 "/></g></g></g><g fill="#f15c00" fill-opacity="1"><g transform="translate(26.855386, 12.260997)"><g><path d="M 2.65625 -5.859375 L 4 -5.859375 L 4 -7.265625 C 3.976562 -7.640625 3.898438 -7.96875 3.765625 -8.25 C 3.710938 -8.375 3.640625 -8.492188 3.546875 -8.609375 C 3.460938 -8.734375 3.359375 -8.84375 3.234375 -8.9375 C 3.109375 -9.019531 2.957031 -9.085938 2.78125 -9.140625 C 2.613281 -9.203125 2.421875 -9.234375 2.203125 -9.234375 C 1.972656 -9.234375 1.769531 -9.203125 1.59375 -9.140625 C 1.425781 -9.085938 1.28125 -9.019531 1.15625 -8.9375 C 1.03125 -8.84375 0.925781 -8.734375 0.84375 -8.609375 C 0.757812 -8.492188 0.691406 -8.375 0.640625 -8.25 C 0.503906 -7.96875 0.425781 -7.640625 0.40625 -7.265625 L 0.40625 -1.875 C 0.394531 -1.5 0.445312 -1.171875 0.5625 -0.890625 C 0.613281 -0.765625 0.675781 -0.640625 0.75 -0.515625 C 0.832031 -0.398438 0.925781 -0.300781 1.03125 -0.21875 C 1.144531 -0.113281 1.28125 -0.0351562 1.4375 0.015625 C 1.59375 0.0664062 1.773438 0.09375 1.984375 0.09375 C 2.203125 0.09375 2.398438 0.046875 2.578125 -0.046875 C 2.753906 -0.148438 2.90625 -0.28125 3.03125 -0.4375 L 3.203125 0 L 4 0 L 4 -4.546875 L 2.109375 -4.546875 L 2.109375 -3.421875 L 2.65625 -3.421875 L 2.65625 -1.765625 C 2.65625 -1.617188 2.632812 -1.507812 2.59375 -1.4375 C 2.570312 -1.34375 2.53125 -1.257812 2.46875 -1.1875 C 2.40625 -1.125 2.316406 -1.09375 2.203125 -1.09375 C 2.097656 -1.09375 2.007812 -1.125 1.9375 -1.1875 C 1.8125 -1.332031 1.75 -1.523438 1.75 -1.765625 L 1.75 -7.265625 C 1.75 -7.398438 1.765625 -7.507812 1.796875 -7.59375 C 1.828125 -7.675781 1.875 -7.753906 1.9375 -7.828125 C 2 -7.898438 2.085938 -7.9375 2.203125 -7.9375 C 2.316406 -7.9375 2.40625 -7.898438 2.46875 -7.828125 C 2.59375 -7.691406 2.65625 -7.503906 2.65625 -7.265625 Z M 2.65625 -5.859375 "/></g></g></g><g fill="#f15c00" fill-opacity="1"><g transform="translate(31.494435, 12.260997)"><g><path d="M 0.5 -9.140625 L 0.5 0 L 1.84375 0 L 1.84375 -9.140625 Z M 0.5 -9.140625 "/></g></g></g><g fill="#f15c00" fill-opacity="1"><g transform="translate(33.994348, 12.260997)"><g><path d="M 4 -3.140625 L 2.734375 -3.140625 L 2.734375 -1.875 C 2.734375 -1.726562 2.71875 -1.617188 2.6875 -1.546875 C 2.65625 -1.453125 2.601562 -1.367188 2.53125 -1.296875 C 2.46875 -1.234375 2.363281 -1.203125 2.21875 -1.203125 C 2.113281 -1.203125 2.03125 -1.238281 1.96875 -1.3125 C 1.832031 -1.445312 1.757812 -1.632812 1.75 -1.875 L 1.75 -7.265625 C 1.757812 -7.328125 1.769531 -7.382812 1.78125 -7.4375 C 1.789062 -7.5 1.800781 -7.550781 1.8125 -7.59375 C 1.84375 -7.675781 1.890625 -7.753906 1.953125 -7.828125 C 2.015625 -7.898438 2.101562 -7.9375 2.21875 -7.9375 C 2.363281 -7.9375 2.46875 -7.898438 2.53125 -7.828125 C 2.664062 -7.691406 2.734375 -7.503906 2.734375 -7.265625 L 2.734375 -6 L 4 -6 L 4 -7.265625 C 3.976562 -7.640625 3.898438 -7.96875 3.765625 -8.25 C 3.710938 -8.375 3.640625 -8.492188 3.546875 -8.609375 C 3.460938 -8.734375 3.359375 -8.84375 3.234375 -8.9375 C 3.109375 -9.019531 2.957031 -9.085938 2.78125 -9.140625 C 2.613281 -9.203125 2.421875 -9.234375 2.203125 -9.234375 C 1.972656 -9.234375 1.769531 -9.203125 1.59375 -9.140625 C 1.425781 -9.085938 1.28125 -9.019531 1.15625 -8.9375 C 1.03125 -8.84375 0.925781 -8.734375 0.84375 -8.609375 C 0.757812 -8.492188 0.691406 -8.375 0.640625 -8.25 C 0.503906 -7.96875 0.425781 -7.640625 0.40625 -7.265625 L 0.40625 -1.875 C 0.425781 -1.5 0.503906 -1.171875 0.640625 -0.890625 C 0.691406 -0.765625 0.757812 -0.640625 0.84375 -0.515625 C 0.925781 -0.398438 1.03125 -0.300781 1.15625 -0.21875 C 1.414062 -0.0078125 1.765625 0.09375 2.203125 0.09375 C 2.628906 0.09375 2.972656 -0.0078125 3.234375 -0.21875 C 3.359375 -0.300781 3.460938 -0.398438 3.546875 -0.515625 C 3.640625 -0.640625 3.710938 -0.765625 3.765625 -0.890625 C 3.898438 -1.171875 3.976562 -1.5 4 -1.875 Z M 4 -3.140625 "/></g></g></g><g fill="#f15c00" fill-opacity="1"><g transform="translate(38.459272, 12.260997)"><g/></g></g><g fill="#f15c00" fill-opacity="1"><g transform="translate(40.536333, 12.260997)"><g><path d="M 4 -3.140625 L 2.734375 -3.140625 L 2.734375 -1.875 C 2.734375 -1.726562 2.71875 -1.617188 2.6875 -1.546875 C 2.65625 -1.453125 2.601562 -1.367188 2.53125 -1.296875 C 2.46875 -1.234375 2.363281 -1.203125 2.21875 -1.203125 C 2.113281 -1.203125 2.03125 -1.238281 1.96875 -1.3125 C 1.832031 -1.445312 1.757812 -1.632812 1.75 -1.875 L 1.75 -7.265625 C 1.757812 -7.328125 1.769531 -7.382812 1.78125 -7.4375 C 1.789062 -7.5 1.800781 -7.550781 1.8125 -7.59375 C 1.84375 -7.675781 1.890625 -7.753906 1.953125 -7.828125 C 2.015625 -7.898438 2.101562 -7.9375 2.21875 -7.9375 C 2.363281 -7.9375 2.46875 -7.898438 2.53125 -7.828125 C 2.664062 -7.691406 2.734375 -7.503906 2.734375 -7.265625 L 2.734375 -6 L 4 -6 L 4 -7.265625 C 3.976562 -7.640625 3.898438 -7.96875 3.765625 -8.25 C 3.710938 -8.375 3.640625 -8.492188 3.546875 -8.609375 C 3.460938 -8.734375 3.359375 -8.84375 3.234375 -8.9375 C 3.109375 -9.019531 2.957031 -9.085938 2.78125 -9.140625 C 2.613281 -9.203125 2.421875 -9.234375 2.203125 -9.234375 C 1.972656 -9.234375 1.769531 -9.203125 1.59375 -9.140625 C 1.425781 -9.085938 1.28125 -9.019531 1.15625 -8.9375 C 1.03125 -8.84375 0.925781 -8.734375 0.84375 -8.609375 C 0.757812 -8.492188 0.691406 -8.375 0.640625 -8.25 C 0.503906 -7.96875 0.425781 -7.640625 0.40625 -7.265625 L 0.40625 -1.875 C 0.425781 -1.5 0.503906 -1.171875 0.640625 -0.890625 C 0.691406 -0.765625 0.757812 -0.640625 0.84375 -0.515625 C 0.925781 -0.398438 1.03125 -0.300781 1.15625 -0.21875 C 1.414062 -0.0078125 1.765625 0.09375 2.203125 0.09375 C 2.628906 0.09375 2.972656 -0.0078125 3.234375 -0.21875 C 3.359375 -0.300781 3.460938 -0.398438 3.546875 -0.515625 C 3.640625 -0.640625 3.710938 -0.765625 3.765625 -0.890625 C 3.898438 -1.171875 3.976562 -1.5 4 -1.875 Z M 4 -3.140625 "/></g></g></g><g fill="#f15c00" fill-opacity="1"><g transform="translate(45.001257, 12.260997)"><g><path d="M 4 -1.875 L 4 -7.265625 C 3.976562 -7.640625 3.898438 -7.96875 3.765625 -8.25 C 3.710938 -8.375 3.640625 -8.492188 3.546875 -8.609375 C 3.460938 -8.734375 3.359375 -8.84375 3.234375 -8.9375 C 3.109375 -9.019531 2.957031 -9.085938 2.78125 -9.140625 C 2.613281 -9.203125 2.421875 -9.234375 2.203125 -9.234375 C 1.972656 -9.234375 1.769531 -9.203125 1.59375 -9.140625 C 1.425781 -9.085938 1.28125 -9.019531 1.15625 -8.9375 C 1.03125 -8.84375 0.925781 -8.734375 0.84375 -8.609375 C 0.757812 -8.492188 0.691406 -8.375 0.640625 -8.25 C 0.503906 -7.96875 0.425781 -7.640625 0.40625 -7.265625 L 0.40625 -1.875 C 0.425781 -1.5 0.503906 -1.171875 0.640625 -0.890625 C 0.691406 -0.765625 0.757812 -0.640625 0.84375 -0.515625 C 0.925781 -0.398438 1.03125 -0.300781 1.15625 -0.21875 C 1.414062 -0.0078125 1.765625 0.09375 2.203125 0.09375 C 2.628906 0.09375 2.972656 -0.0078125 3.234375 -0.21875 C 3.359375 -0.300781 3.460938 -0.398438 3.546875 -0.515625 C 3.640625 -0.640625 3.710938 -0.765625 3.765625 -0.890625 C 3.898438 -1.171875 3.976562 -1.5 4 -1.875 Z M 2.65625 -7.265625 L 2.65625 -1.875 C 2.65625 -1.726562 2.632812 -1.617188 2.59375 -1.546875 C 2.570312 -1.453125 2.53125 -1.367188 2.46875 -1.296875 C 2.40625 -1.234375 2.316406 -1.203125 2.203125 -1.203125 C 2.097656 -1.203125 2.007812 -1.238281 1.9375 -1.3125 C 1.8125 -1.445312 1.75 -1.632812 1.75 -1.875 L 1.75 -7.265625 C 1.75 -7.398438 1.765625 -7.507812 1.796875 -7.59375 C 1.828125 -7.675781 1.875 -7.753906 1.9375 -7.828125 C 2 -7.898438 2.085938 -7.9375 2.203125 -7.9375 C 2.316406 -7.9375 2.40625 -7.898438 2.46875 -7.828125 C 2.59375 -7.691406 2.65625 -7.503906 2.65625 -7.265625 Z M 2.65625 -7.265625 "/></g></g></g><g fill="#f15c00" fill-opacity="1"><g transform="translate(49.565681, 12.260997)"><g><path d="M 1.921875 -4.765625 L 3.21875 0 L 4.421875 0 L 4.421875 -9.140625 L 3.1875 -9.140625 L 3.1875 -3.953125 L 3.109375 -3.953125 L 3 -4.375 L 1.6875 -9.140625 L 0.5 -9.140625 L 0.5 0 L 1.734375 0 L 1.734375 -5.1875 L 1.796875 -5.1875 Z M 1.921875 -4.765625 "/></g></g></g><g fill="#f15c00" fill-opacity="1"><g transform="translate(54.640014, 12.260997)"><g><path d="M 2.71875 -6.6875 L 4.046875 -6.8125 C 4.046875 -7.070312 4.019531 -7.34375 3.96875 -7.625 C 3.925781 -7.914062 3.835938 -8.1875 3.703125 -8.4375 C 3.566406 -8.675781 3.378906 -8.867188 3.140625 -9.015625 C 2.898438 -9.171875 2.578125 -9.242188 2.171875 -9.234375 C 1.847656 -9.234375 1.570312 -9.164062 1.34375 -9.03125 C 1.125 -8.90625 0.945312 -8.742188 0.8125 -8.546875 C 0.664062 -8.335938 0.5625 -8.101562 0.5 -7.84375 C 0.4375 -7.59375 0.40625 -7.347656 0.40625 -7.109375 C 0.40625 -6.859375 0.441406 -6.613281 0.515625 -6.375 C 0.648438 -5.894531 0.875 -5.421875 1.1875 -4.953125 C 1.332031 -4.722656 1.472656 -4.503906 1.609375 -4.296875 C 1.753906 -4.085938 1.894531 -3.882812 2.03125 -3.6875 C 2.09375 -3.601562 2.148438 -3.515625 2.203125 -3.421875 C 2.253906 -3.328125 2.3125 -3.234375 2.375 -3.140625 C 2.476562 -2.960938 2.5625 -2.785156 2.625 -2.609375 C 2.6875 -2.441406 2.71875 -2.285156 2.71875 -2.140625 C 2.71875 -1.847656 2.675781 -1.601562 2.59375 -1.40625 C 2.507812 -1.21875 2.367188 -1.125 2.171875 -1.125 C 2.035156 -1.125 1.925781 -1.171875 1.84375 -1.265625 C 1.757812 -1.359375 1.695312 -1.476562 1.65625 -1.625 C 1.601562 -1.769531 1.570312 -1.9375 1.5625 -2.125 C 1.550781 -2.3125 1.546875 -2.5 1.546875 -2.6875 L 0.21875 -2.5625 C 0.21875 -2.21875 0.238281 -1.882812 0.28125 -1.5625 C 0.332031 -1.25 0.425781 -0.96875 0.5625 -0.71875 C 0.695312 -0.46875 0.890625 -0.269531 1.140625 -0.125 C 1.398438 0.0195312 1.742188 0.09375 2.171875 0.09375 C 2.535156 0.09375 2.835938 0.03125 3.078125 -0.09375 C 3.316406 -0.21875 3.507812 -0.382812 3.65625 -0.59375 C 3.800781 -0.8125 3.898438 -1.054688 3.953125 -1.328125 C 4.015625 -1.597656 4.046875 -1.890625 4.046875 -2.203125 C 4.046875 -2.453125 4.003906 -2.691406 3.921875 -2.921875 C 3.847656 -3.160156 3.753906 -3.394531 3.640625 -3.625 C 3.523438 -3.863281 3.390625 -4.097656 3.234375 -4.328125 C 3.085938 -4.554688 2.9375 -4.789062 2.78125 -5.03125 C 2.65625 -5.21875 2.53125 -5.398438 2.40625 -5.578125 C 2.28125 -5.765625 2.164062 -5.945312 2.0625 -6.125 C 1.96875 -6.289062 1.890625 -6.453125 1.828125 -6.609375 C 1.765625 -6.773438 1.734375 -6.941406 1.734375 -7.109375 C 1.734375 -7.367188 1.765625 -7.582031 1.828125 -7.75 C 1.890625 -7.914062 2.007812 -8.003906 2.1875 -8.015625 C 2.289062 -8.015625 2.378906 -7.972656 2.453125 -7.890625 C 2.523438 -7.816406 2.582031 -7.71875 2.625 -7.59375 C 2.664062 -7.457031 2.691406 -7.3125 2.703125 -7.15625 C 2.710938 -7 2.71875 -6.84375 2.71875 -6.6875 Z M 2.71875 -6.6875 "/></g></g></g><g fill="#f15c00" fill-opacity="1"><g transform="translate(59.067631, 12.260997)"><g><path d="M 4.0625 -9.140625 L 2.71875 -9.140625 L 2.71875 -1.875 C 2.71875 -1.726562 2.703125 -1.617188 2.671875 -1.546875 C 2.648438 -1.453125 2.609375 -1.367188 2.546875 -1.296875 C 2.484375 -1.234375 2.394531 -1.203125 2.28125 -1.203125 C 2.164062 -1.203125 2.078125 -1.238281 2.015625 -1.3125 C 1.890625 -1.445312 1.828125 -1.632812 1.828125 -1.875 L 1.828125 -9.140625 L 0.484375 -9.140625 L 0.484375 -1.875 C 0.503906 -1.5 0.578125 -1.171875 0.703125 -0.890625 C 0.765625 -0.765625 0.835938 -0.640625 0.921875 -0.515625 C 1.003906 -0.398438 1.109375 -0.300781 1.234375 -0.21875 C 1.484375 -0.0078125 1.832031 0.09375 2.28125 0.09375 C 2.707031 0.09375 3.050781 -0.0078125 3.3125 -0.21875 C 3.4375 -0.300781 3.539062 -0.398438 3.625 -0.515625 C 3.707031 -0.640625 3.78125 -0.765625 3.84375 -0.890625 C 3.976562 -1.171875 4.050781 -1.5 4.0625 -1.875 Z M 4.0625 -9.140625 "/></g></g></g><g fill="#f15c00" fill-opacity="1"><g transform="translate(63.781294, 12.260997)"><g><path d="M 0.5 -9.140625 L 0.5 0 L 3.625 0 L 3.625 -1.25 L 1.84375 -1.25 L 1.84375 -9.140625 Z M 0.5 -9.140625 "/></g></g></g><g fill="#f15c00" fill-opacity="1"><g transform="translate(67.611946, 12.260997)"><g><path d="M 0.03125 -7.765625 L 1.296875 -7.765625 L 1.296875 0 L 2.640625 0 L 2.640625 -7.765625 L 3.90625 -7.765625 L 3.90625 -9.140625 L 0.03125 -9.140625 Z M 0.03125 -7.765625 "/></g></g></g><g fill="#f15c00" fill-opacity="1"><g transform="translate(71.703768, 12.260997)"><g><path d="M 0.5 -9.140625 L 0.5 0 L 1.84375 0 L 1.84375 -9.140625 Z M 0.5 -9.140625 "/></g></g></g><g fill="#f15c00" fill-opacity="1"><g transform="translate(74.20368, 12.260997)"><g><path d="M 1.921875 -4.765625 L 3.21875 0 L 4.421875 0 L 4.421875 -9.140625 L 3.1875 -9.140625 L 3.1875 -3.953125 L 3.109375 -3.953125 L 3 -4.375 L 1.6875 -9.140625 L 0.5 -9.140625 L 0.5 0 L 1.734375 0 L 1.734375 -5.1875 L 1.796875 -5.1875 Z M 1.921875 -4.765625 "/></g></g></g><g fill="#f15c00" fill-opacity="1"><g transform="translate(79.278013, 12.260997)"><g><path d="M 2.65625 -5.859375 L 4 -5.859375 L 4 -7.265625 C 3.976562 -7.640625 3.898438 -7.96875 3.765625 -8.25 C 3.710938 -8.375 3.640625 -8.492188 3.546875 -8.609375 C 3.460938 -8.734375 3.359375 -8.84375 3.234375 -8.9375 C 3.109375 -9.019531 2.957031 -9.085938 2.78125 -9.140625 C 2.613281 -9.203125 2.421875 -9.234375 2.203125 -9.234375 C 1.972656 -9.234375 1.769531 -9.203125 1.59375 -9.140625 C 1.425781 -9.085938 1.28125 -9.019531 1.15625 -8.9375 C 1.03125 -8.84375 0.925781 -8.734375 0.84375 -8.609375 C 0.757812 -8.492188 0.691406 -8.375 0.640625 -8.25 C 0.503906 -7.96875 0.425781 -7.640625 0.40625 -7.265625 L 0.40625 -1.875 C 0.394531 -1.5 0.445312 -1.171875 0.5625 -0.890625 C 0.613281 -0.765625 0.675781 -0.640625 0.75 -0.515625 C 0.832031 -0.398438 0.925781 -0.300781 1.03125 -0.21875 C 1.144531 -0.113281 1.28125 -0.0351562 1.4375 0.015625 C 1.59375 0.0664062 1.773438 0.09375 1.984375 0.09375 C 2.203125 0.09375 2.398438 0.046875 2.578125 -0.046875 C 2.753906 -0.148438 2.90625 -0.28125 3.03125 -0.4375 L 3.203125 0 L 4 0 L 4 -4.546875 L 2.109375 -4.546875 L 2.109375 -3.421875 L 2.65625 -3.421875 L 2.65625 -1.765625 C 2.65625 -1.617188 2.632812 -1.507812 2.59375 -1.4375 C 2.570312 -1.34375 2.53125 -1.257812 2.46875 -1.1875 C 2.40625 -1.125 2.316406 -1.09375 2.203125 -1.09375 C 2.097656 -1.09375 2.007812 -1.125 1.9375 -1.1875 C 1.8125 -1.332031 1.75 -1.523438 1.75 -1.765625 L 1.75 -7.265625 C 1.75 -7.398438 1.765625 -7.507812 1.796875 -7.59375 C 1.828125 -7.675781 1.875 -7.753906 1.9375 -7.828125 C 2 -7.898438 2.085938 -7.9375 2.203125 -7.9375 C 2.316406 -7.9375 2.40625 -7.898438 2.46875 -7.828125 C 2.59375 -7.691406 2.65625 -7.503906 2.65625 -7.265625 Z M 2.65625 -5.859375 "/></g></g></g><g fill="#f15c00" fill-opacity="1"><g transform="translate(83.917881, 12.260997)"><g/></g></g><g fill="#f15c00" fill-opacity="1"><g transform="translate(85.994941, 12.260997)"><g/></g></g><g fill="#f15c00" fill-opacity="1"><g transform="translate(88.072001, 12.260997)"><g/></g></g><g fill="#f15c00" fill-opacity="1"><g transform="translate(90.149062, 12.260997)"><g/></g></g><g fill="#f15c00" fill-opacity="1"><g transform="translate(92.226122, 12.260997)"><g/></g></g><g fill="#f15c00" fill-opacity="1"><g transform="translate(94.303183, 12.260997)"><g/></g></g><g fill="#f15c00" fill-opacity="1"><g transform="translate(96.387256, 12.260997)"><g><path d="M 0.125 0 L 1.4375 0 L 1.671875 -1.859375 L 2.96875 -1.859375 L 3.21875 0 L 4.53125 0 L 3.140625 -9.140625 L 1.5 -9.140625 Z M 2.40625 -6.171875 L 2.78125 -3.28125 L 1.859375 -3.28125 L 2.25 -6.171875 L 2.28125 -6.40625 L 2.359375 -6.40625 Z M 2.40625 -6.171875 "/></g></g></g><g fill="#f15c00" fill-opacity="1"><g transform="translate(101.200419, 12.260997)"><g><path d="M 2.71875 -6.6875 L 4.046875 -6.8125 C 4.046875 -7.070312 4.019531 -7.34375 3.96875 -7.625 C 3.925781 -7.914062 3.835938 -8.1875 3.703125 -8.4375 C 3.566406 -8.675781 3.378906 -8.867188 3.140625 -9.015625 C 2.898438 -9.171875 2.578125 -9.242188 2.171875 -9.234375 C 1.847656 -9.234375 1.570312 -9.164062 1.34375 -9.03125 C 1.125 -8.90625 0.945312 -8.742188 0.8125 -8.546875 C 0.664062 -8.335938 0.5625 -8.101562 0.5 -7.84375 C 0.4375 -7.59375 0.40625 -7.347656 0.40625 -7.109375 C 0.40625 -6.859375 0.441406 -6.613281 0.515625 -6.375 C 0.648438 -5.894531 0.875 -5.421875 1.1875 -4.953125 C 1.332031 -4.722656 1.472656 -4.503906 1.609375 -4.296875 C 1.753906 -4.085938 1.894531 -3.882812 2.03125 -3.6875 C 2.09375 -3.601562 2.148438 -3.515625 2.203125 -3.421875 C 2.253906 -3.328125 2.3125 -3.234375 2.375 -3.140625 C 2.476562 -2.960938 2.5625 -2.785156 2.625 -2.609375 C 2.6875 -2.441406 2.71875 -2.285156 2.71875 -2.140625 C 2.71875 -1.847656 2.675781 -1.601562 2.59375 -1.40625 C 2.507812 -1.21875 2.367188 -1.125 2.171875 -1.125 C 2.035156 -1.125 1.925781 -1.171875 1.84375 -1.265625 C 1.757812 -1.359375 1.695312 -1.476562 1.65625 -1.625 C 1.601562 -1.769531 1.570312 -1.9375 1.5625 -2.125 C 1.550781 -2.3125 1.546875 -2.5 1.546875 -2.6875 L 0.21875 -2.5625 C 0.21875 -2.21875 0.238281 -1.882812 0.28125 -1.5625 C 0.332031 -1.25 0.425781 -0.96875 0.5625 -0.71875 C 0.695312 -0.46875 0.890625 -0.269531 1.140625 -0.125 C 1.398438 0.0195312 1.742188 0.09375 2.171875 0.09375 C 2.535156 0.09375 2.835938 0.03125 3.078125 -0.09375 C 3.316406 -0.21875 3.507812 -0.382812 3.65625 -0.59375 C 3.800781 -0.8125 3.898438 -1.054688 3.953125 -1.328125 C 4.015625 -1.597656 4.046875 -1.890625 4.046875 -2.203125 C 4.046875 -2.453125 4.003906 -2.691406 3.921875 -2.921875 C 3.847656 -3.160156 3.753906 -3.394531 3.640625 -3.625 C 3.523438 -3.863281 3.390625 -4.097656 3.234375 -4.328125 C 3.085938 -4.554688 2.9375 -4.789062 2.78125 -5.03125 C 2.65625 -5.21875 2.53125 -5.398438 2.40625 -5.578125 C 2.28125 -5.765625 2.164062 -5.945312 2.0625 -6.125 C 1.96875 -6.289062 1.890625 -6.453125 1.828125 -6.609375 C 1.765625 -6.773438 1.734375 -6.941406 1.734375 -7.109375 C 1.734375 -7.367188 1.765625 -7.582031 1.828125 -7.75 C 1.890625 -7.914062 2.007812 -8.003906 2.1875 -8.015625 C 2.289062 -8.015625 2.378906 -7.972656 2.453125 -7.890625 C 2.523438 -7.816406 2.582031 -7.71875 2.625 -7.59375 C 2.664062 -7.457031 2.691406 -7.3125 2.703125 -7.15625 C 2.710938 -7 2.71875 -6.84375 2.71875 -6.6875 Z M 2.71875 -6.6875 "/></g></g></g><g fill="#f15c00" fill-opacity="1"><g transform="translate(105.628036, 12.260997)"><g><path d="M 2.71875 -6.6875 L 4.046875 -6.8125 C 4.046875 -7.070312 4.019531 -7.34375 3.96875 -7.625 C 3.925781 -7.914062 3.835938 -8.1875 3.703125 -8.4375 C 3.566406 -8.675781 3.378906 -8.867188 3.140625 -9.015625 C 2.898438 -9.171875 2.578125 -9.242188 2.171875 -9.234375 C 1.847656 -9.234375 1.570312 -9.164062 1.34375 -9.03125 C 1.125 -8.90625 0.945312 -8.742188 0.8125 -8.546875 C 0.664062 -8.335938 0.5625 -8.101562 0.5 -7.84375 C 0.4375 -7.59375 0.40625 -7.347656 0.40625 -7.109375 C 0.40625 -6.859375 0.441406 -6.613281 0.515625 -6.375 C 0.648438 -5.894531 0.875 -5.421875 1.1875 -4.953125 C 1.332031 -4.722656 1.472656 -4.503906 1.609375 -4.296875 C 1.753906 -4.085938 1.894531 -3.882812 2.03125 -3.6875 C 2.09375 -3.601562 2.148438 -3.515625 2.203125 -3.421875 C 2.253906 -3.328125 2.3125 -3.234375 2.375 -3.140625 C 2.476562 -2.960938 2.5625 -2.785156 2.625 -2.609375 C 2.6875 -2.441406 2.71875 -2.285156 2.71875 -2.140625 C 2.71875 -1.847656 2.675781 -1.601562 2.59375 -1.40625 C 2.507812 -1.21875 2.367188 -1.125 2.171875 -1.125 C 2.035156 -1.125 1.925781 -1.171875 1.84375 -1.265625 C 1.757812 -1.359375 1.695312 -1.476562 1.65625 -1.625 C 1.601562 -1.769531 1.570312 -1.9375 1.5625 -2.125 C 1.550781 -2.3125 1.546875 -2.5 1.546875 -2.6875 L 0.21875 -2.5625 C 0.21875 -2.21875 0.238281 -1.882812 0.28125 -1.5625 C 0.332031 -1.25 0.425781 -0.96875 0.5625 -0.71875 C 0.695312 -0.46875 0.890625 -0.269531 1.140625 -0.125 C 1.398438 0.0195312 1.742188 0.09375 2.171875 0.09375 C 2.535156 0.09375 2.835938 0.03125 3.078125 -0.09375 C 3.316406 -0.21875 3.507812 -0.382812 3.65625 -0.59375 C 3.800781 -0.8125 3.898438 -1.054688 3.953125 -1.328125 C 4.015625 -1.597656 4.046875 -1.890625 4.046875 -2.203125 C 4.046875 -2.453125 4.003906 -2.691406 3.921875 -2.921875 C 3.847656 -3.160156 3.753906 -3.394531 3.640625 -3.625 C 3.523438 -3.863281 3.390625 -4.097656 3.234375 -4.328125 C 3.085938 -4.554688 2.9375 -4.789062 2.78125 -5.03125 C 2.65625 -5.21875 2.53125 -5.398438 2.40625 -5.578125 C 2.28125 -5.765625 2.164062 -5.945312 2.0625 -6.125 C 1.96875 -6.289062 1.890625 -6.453125 1.828125 -6.609375 C 1.765625 -6.773438 1.734375 -6.941406 1.734375 -7.109375 C 1.734375 -7.367188 1.765625 -7.582031 1.828125 -7.75 C 1.890625 -7.914062 2.007812 -8.003906 2.1875 -8.015625 C 2.289062 -8.015625 2.378906 -7.972656 2.453125 -7.890625 C 2.523438 -7.816406 2.582031 -7.71875 2.625 -7.59375 C 2.664062 -7.457031 2.691406 -7.3125 2.703125 -7.15625 C 2.710938 -7 2.71875 -6.84375 2.71875 -6.6875 Z M 2.71875 -6.6875 "/></g></g></g><g fill="#f15c00" fill-opacity="1"><g transform="translate(110.055653, 12.260997)"><g><path d="M 0.5 -9.140625 L 0.5 0 L 3.5625 0 L 3.5625 -1.375 L 1.84375 -1.375 L 1.84375 -3.890625 L 3.078125 -3.890625 L 3.078125 -5.359375 L 1.84375 -5.359375 L 1.84375 -7.765625 L 3.5625 -7.765625 L 3.5625 -9.140625 Z M 0.5 -9.140625 "/></g></g></g><g fill="#f15c00" fill-opacity="1"><g transform="translate(114.035543, 12.260997)"><g><path d="M 0.03125 -7.765625 L 1.296875 -7.765625 L 1.296875 0 L 2.640625 0 L 2.640625 -7.765625 L 3.90625 -7.765625 L 3.90625 -9.140625 L 0.03125 -9.140625 Z M 0.03125 -7.765625 "/></g></g></g><g fill="#f15c00" fill-opacity="1"><g transform="translate(118.127365, 12.260997)"><g/></g></g><g fill="#f15c00" fill-opacity="1"><g transform="translate(120.204426, 12.260997)"><g><path d="M 2.9375 -9.140625 L 2.265625 -4.109375 L 2.21875 -3.734375 L 2.140625 -3.734375 L 2.09375 -4.109375 L 1.421875 -9.140625 L 0.109375 -9.140625 L 1.5 0 L 2.84375 0 L 4.234375 -9.140625 Z M 2.9375 -9.140625 "/></g></g></g><g fill="#f15c00" fill-opacity="1"><g transform="translate(124.7191, 12.260997)"><g><path d="M 0.125 0 L 1.4375 0 L 1.671875 -1.859375 L 2.96875 -1.859375 L 3.21875 0 L 4.53125 0 L 3.140625 -9.140625 L 1.5 -9.140625 Z M 2.40625 -6.171875 L 2.78125 -3.28125 L 1.859375 -3.28125 L 2.25 -6.171875 L 2.28125 -6.40625 L 2.359375 -6.40625 Z M 2.40625 -6.171875 "/></g></g></g><g fill="#f15c00" fill-opacity="1"><g transform="translate(129.532263, 12.260997)"><g><path d="M 0.5 -9.140625 L 0.5 0 L 3.625 0 L 3.625 -1.25 L 1.84375 -1.25 L 1.84375 -9.140625 Z M 0.5 -9.140625 "/></g></g></g><g fill="#f15c00" fill-opacity="1"><g transform="translate(133.362914, 12.260997)"><g><path d="M 4.0625 -9.140625 L 2.71875 -9.140625 L 2.71875 -1.875 C 2.71875 -1.726562 2.703125 -1.617188 2.671875 -1.546875 C 2.648438 -1.453125 2.609375 -1.367188 2.546875 -1.296875 C 2.484375 -1.234375 2.394531 -1.203125 2.28125 -1.203125 C 2.164062 -1.203125 2.078125 -1.238281 2.015625 -1.3125 C 1.890625 -1.445312 1.828125 -1.632812 1.828125 -1.875 L 1.828125 -9.140625 L 0.484375 -9.140625 L 0.484375 -1.875 C 0.503906 -1.5 0.578125 -1.171875 0.703125 -0.890625 C 0.765625 -0.765625 0.835938 -0.640625 0.921875 -0.515625 C 1.003906 -0.398438 1.109375 -0.300781 1.234375 -0.21875 C 1.484375 -0.0078125 1.832031 0.09375 2.28125 0.09375 C 2.707031 0.09375 3.050781 -0.0078125 3.3125 -0.21875 C 3.4375 -0.300781 3.539062 -0.398438 3.625 -0.515625 C 3.707031 -0.640625 3.78125 -0.765625 3.84375 -0.890625 C 3.976562 -1.171875 4.050781 -1.5 4.0625 -1.875 Z M 4.0625 -9.140625 "/></g></g></g><g fill="#f15c00" fill-opacity="1"><g transform="translate(138.076577, 12.260997)"><g><path d="M 0.125 0 L 1.4375 0 L 1.671875 -1.859375 L 2.96875 -1.859375 L 3.21875 0 L 4.53125 0 L 3.140625 -9.140625 L 1.5 -9.140625 Z M 2.40625 -6.171875 L 2.78125 -3.28125 L 1.859375 -3.28125 L 2.25 -6.171875 L 2.28125 -6.40625 L 2.359375 -6.40625 Z M 2.40625 -6.171875 "/></g></g></g><g fill="#f15c00" fill-opacity="1"><g transform="translate(142.889739, 12.260997)"><g><path d="M 0.03125 -7.765625 L 1.296875 -7.765625 L 1.296875 0 L 2.640625 0 L 2.640625 -7.765625 L 3.90625 -7.765625 L 3.90625 -9.140625 L 0.03125 -9.140625 Z M 0.03125 -7.765625 "/></g></g></g><g fill="#f15c00" fill-opacity="1"><g transform="translate(146.981561, 12.260997)"><g><path d="M 0.5 -9.140625 L 0.5 0 L 1.84375 0 L 1.84375 -9.140625 Z M 0.5 -9.140625 "/></g></g></g><g fill="#f15c00" fill-opacity="1"><g transform="translate(149.481474, 12.260997)"><g><path d="M 4 -1.875 L 4 -7.265625 C 3.976562 -7.640625 3.898438 -7.96875 3.765625 -8.25 C 3.710938 -8.375 3.640625 -8.492188 3.546875 -8.609375 C 3.460938 -8.734375 3.359375 -8.84375 3.234375 -8.9375 C 3.109375 -9.019531 2.957031 -9.085938 2.78125 -9.140625 C 2.613281 -9.203125 2.421875 -9.234375 2.203125 -9.234375 C 1.972656 -9.234375 1.769531 -9.203125 1.59375 -9.140625 C 1.425781 -9.085938 1.28125 -9.019531 1.15625 -8.9375 C 1.03125 -8.84375 0.925781 -8.734375 0.84375 -8.609375 C 0.757812 -8.492188 0.691406 -8.375 0.640625 -8.25 C 0.503906 -7.96875 0.425781 -7.640625 0.40625 -7.265625 L 0.40625 -1.875 C 0.425781 -1.5 0.503906 -1.171875 0.640625 -0.890625 C 0.691406 -0.765625 0.757812 -0.640625 0.84375 -0.515625 C 0.925781 -0.398438 1.03125 -0.300781 1.15625 -0.21875 C 1.414062 -0.0078125 1.765625 0.09375 2.203125 0.09375 C 2.628906 0.09375 2.972656 -0.0078125 3.234375 -0.21875 C 3.359375 -0.300781 3.460938 -0.398438 3.546875 -0.515625 C 3.640625 -0.640625 3.710938 -0.765625 3.765625 -0.890625 C 3.898438 -1.171875 3.976562 -1.5 4 -1.875 Z M 2.65625 -7.265625 L 2.65625 -1.875 C 2.65625 -1.726562 2.632812 -1.617188 2.59375 -1.546875 C 2.570312 -1.453125 2.53125 -1.367188 2.46875 -1.296875 C 2.40625 -1.234375 2.316406 -1.203125 2.203125 -1.203125 C 2.097656 -1.203125 2.007812 -1.238281 1.9375 -1.3125 C 1.8125 -1.445312 1.75 -1.632812 1.75 -1.875 L 1.75 -7.265625 C 1.75 -7.398438 1.765625 -7.507812 1.796875 -7.59375 C 1.828125 -7.675781 1.875 -7.753906 1.9375 -7.828125 C 2 -7.898438 2.085938 -7.9375 2.203125 -7.9375 C 2.316406 -7.9375 2.40625 -7.898438 2.46875 -7.828125 C 2.59375 -7.691406 2.65625 -7.503906 2.65625 -7.265625 Z M 2.65625 -7.265625 "/></g></g></g><g fill="#f15c00" fill-opacity="1"><g transform="translate(154.045898, 12.260997)"><g><path d="M 1.921875 -4.765625 L 3.21875 0 L 4.421875 0 L 4.421875 -9.140625 L 3.1875 -9.140625 L 3.1875 -3.953125 L 3.109375 -3.953125 L 3 -4.375 L 1.6875 -9.140625 L 0.5 -9.140625 L 0.5 0 L 1.734375 0 L 1.734375 -5.1875 L 1.796875 -5.1875 Z M 1.921875 -4.765625 "/></g></g></g><g fill="#f15c00" fill-opacity="1"><g transform="translate(159.125842, 12.260997)"><g/></g></g><g fill="#f15c00" fill-opacity="1"><g transform="translate(161.202902, 12.260997)"><g/></g></g><g fill="#f15c00" fill-opacity="1"><g transform="translate(163.279963, 12.260997)"><g/></g></g><g fill="#f15c00" fill-opacity="1"><g transform="translate(165.357023, 12.260997)"><g/></g></g><g fill="#f15c00" fill-opacity="1"><g transform="translate(167.434083, 12.260997)"><g/></g></g><g fill="#f15c00" fill-opacity="1"><g transform="translate(169.511144, 12.260997)"><g/></g></g><g fill="#f15c00" fill-opacity="1"><g transform="translate(171.595217, 12.260997)"><g><path d="M 0.5 -9.140625 L 0.5 0 L 3.5625 0 L 3.5625 -1.375 L 1.84375 -1.375 L 1.84375 -3.890625 L 3.078125 -3.890625 L 3.078125 -5.359375 L 1.84375 -5.359375 L 1.84375 -7.765625 L 3.5625 -7.765625 L 3.5625 -9.140625 Z M 0.5 -9.140625 "/></g></g></g><g fill="#f15c00" fill-opacity="1"><g transform="translate(175.575107, 12.260997)"><g><path d="M 0.5 0 L 1.5625 0 C 2.175781 0 2.660156 -0.0664062 3.015625 -0.203125 C 3.378906 -0.347656 3.648438 -0.59375 3.828125 -0.9375 C 4.003906 -1.289062 4.113281 -1.757812 4.15625 -2.34375 C 4.207031 -2.925781 4.234375 -3.664062 4.234375 -4.5625 C 4.234375 -5.457031 4.207031 -6.195312 4.15625 -6.78125 C 4.113281 -7.375 4.003906 -7.847656 3.828125 -8.203125 C 3.648438 -8.546875 3.378906 -8.785156 3.015625 -8.921875 C 2.660156 -9.066406 2.175781 -9.140625 1.5625 -9.140625 L 0.5 -9.140625 Z M 1.84375 -1.34375 L 1.84375 -7.796875 C 2.070312 -7.796875 2.253906 -7.769531 2.390625 -7.71875 C 2.523438 -7.664062 2.628906 -7.53125 2.703125 -7.3125 C 2.734375 -7.207031 2.757812 -7.070312 2.78125 -6.90625 C 2.800781 -6.75 2.816406 -6.5625 2.828125 -6.34375 C 2.828125 -6.125 2.828125 -5.867188 2.828125 -5.578125 C 2.828125 -5.285156 2.828125 -4.953125 2.828125 -4.578125 C 2.828125 -4.203125 2.828125 -3.867188 2.828125 -3.578125 C 2.828125 -3.285156 2.828125 -3.03125 2.828125 -2.8125 C 2.816406 -2.59375 2.800781 -2.398438 2.78125 -2.234375 C 2.757812 -2.078125 2.734375 -1.945312 2.703125 -1.84375 C 2.628906 -1.613281 2.523438 -1.472656 2.390625 -1.421875 C 2.253906 -1.367188 2.070312 -1.34375 1.84375 -1.34375 Z M 1.84375 -1.34375 "/></g></g></g><g fill="#f15c00" fill-opacity="1"><g transform="translate(180.363395, 12.260997)"><g><path d="M 0.5 -9.140625 L 0.5 0 L 1.84375 0 L 1.84375 -9.140625 Z M 0.5 -9.140625 "/></g></g></g><g fill="#f15c00" fill-opacity="1"><g transform="translate(182.863308, 12.260997)"><g><path d="M 0.03125 -7.765625 L 1.296875 -7.765625 L 1.296875 0 L 2.640625 0 L 2.640625 -7.765625 L 3.90625 -7.765625 L 3.90625 -9.140625 L 0.03125 -9.140625 Z M 0.03125 -7.765625 "/></g></g></g><g fill="#f15c00" fill-opacity="1"><g transform="translate(186.95513, 12.260997)"><g><path d="M 4 -1.875 L 4 -7.265625 C 3.976562 -7.640625 3.898438 -7.96875 3.765625 -8.25 C 3.710938 -8.375 3.640625 -8.492188 3.546875 -8.609375 C 3.460938 -8.734375 3.359375 -8.84375 3.234375 -8.9375 C 3.109375 -9.019531 2.957031 -9.085938 2.78125 -9.140625 C 2.613281 -9.203125 2.421875 -9.234375 2.203125 -9.234375 C 1.972656 -9.234375 1.769531 -9.203125 1.59375 -9.140625 C 1.425781 -9.085938 1.28125 -9.019531 1.15625 -8.9375 C 1.03125 -8.84375 0.925781 -8.734375 0.84375 -8.609375 C 0.757812 -8.492188 0.691406 -8.375 0.640625 -8.25 C 0.503906 -7.96875 0.425781 -7.640625 0.40625 -7.265625 L 0.40625 -1.875 C 0.425781 -1.5 0.503906 -1.171875 0.640625 -0.890625 C 0.691406 -0.765625 0.757812 -0.640625 0.84375 -0.515625 C 0.925781 -0.398438 1.03125 -0.300781 1.15625 -0.21875 C 1.414062 -0.0078125 1.765625 0.09375 2.203125 0.09375 C 2.628906 0.09375 2.972656 -0.0078125 3.234375 -0.21875 C 3.359375 -0.300781 3.460938 -0.398438 3.546875 -0.515625 C 3.640625 -0.640625 3.710938 -0.765625 3.765625 -0.890625 C 3.898438 -1.171875 3.976562 -1.5 4 -1.875 Z M 2.65625 -7.265625 L 2.65625 -1.875 C 2.65625 -1.726562 2.632812 -1.617188 2.59375 -1.546875 C 2.570312 -1.453125 2.53125 -1.367188 2.46875 -1.296875 C 2.40625 -1.234375 2.316406 -1.203125 2.203125 -1.203125 C 2.097656 -1.203125 2.007812 -1.238281 1.9375 -1.3125 C 1.8125 -1.445312 1.75 -1.632812 1.75 -1.875 L 1.75 -7.265625 C 1.75 -7.398438 1.765625 -7.507812 1.796875 -7.59375 C 1.828125 -7.675781 1.875 -7.753906 1.9375 -7.828125 C 2 -7.898438 2.085938 -7.9375 2.203125 -7.9375 C 2.316406 -7.9375 2.40625 -7.898438 2.46875 -7.828125 C 2.59375 -7.691406 2.65625 -7.503906 2.65625 -7.265625 Z M 2.65625 -7.265625 "/></g></g></g><g fill="#f15c00" fill-opacity="1"><g transform="translate(191.519554, 12.260997)"><g><path d="M 2.890625 0 L 4.234375 0 L 3.390625 -4.421875 C 3.640625 -4.597656 3.820312 -4.875 3.9375 -5.25 C 4.0625 -5.632812 4.125 -6.050781 4.125 -6.5 C 4.125 -7.363281 3.941406 -8.019531 3.578125 -8.46875 C 3.222656 -8.914062 2.644531 -9.140625 1.84375 -9.140625 L 0.5 -9.140625 L 0.5 0 L 1.84375 0 L 1.84375 -3.859375 L 2.203125 -3.859375 Z M 1.84375 -5.09375 L 1.84375 -7.8125 C 1.9375 -7.8125 2.039062 -7.800781 2.15625 -7.78125 C 2.269531 -7.769531 2.375 -7.71875 2.46875 -7.625 C 2.570312 -7.539062 2.65625 -7.40625 2.71875 -7.21875 C 2.789062 -7.03125 2.828125 -6.773438 2.828125 -6.453125 C 2.828125 -6.128906 2.789062 -5.878906 2.71875 -5.703125 C 2.65625 -5.523438 2.570312 -5.390625 2.46875 -5.296875 C 2.375 -5.210938 2.269531 -5.15625 2.15625 -5.125 C 2.039062 -5.101562 1.9375 -5.09375 1.84375 -5.09375 Z M 1.84375 -5.09375 "/></g></g></g><g fill="#f15c00" fill-opacity="1"><g transform="translate(196.171035, 12.260997)"><g><path d="M 0.5 -9.140625 L 0.5 0 L 1.84375 0 L 1.84375 -9.140625 Z M 0.5 -9.140625 "/></g></g></g><g fill="#f15c00" fill-opacity="1"><g transform="translate(198.670947, 12.260997)"><g><path d="M 0.125 0 L 1.4375 0 L 1.671875 -1.859375 L 2.96875 -1.859375 L 3.21875 0 L 4.53125 0 L 3.140625 -9.140625 L 1.5 -9.140625 Z M 2.40625 -6.171875 L 2.78125 -3.28125 L 1.859375 -3.28125 L 2.25 -6.171875 L 2.28125 -6.40625 L 2.359375 -6.40625 Z M 2.40625 -6.171875 "/></g></g></g><g fill="#f15c00" fill-opacity="1"><g transform="translate(203.48411, 12.260997)"><g><path d="M 0.5 -9.140625 L 0.5 0 L 3.625 0 L 3.625 -1.25 L 1.84375 -1.25 L 1.84375 -9.140625 Z M 0.5 -9.140625 "/></g></g></g><g fill="#f15c00" fill-opacity="1"><g transform="translate(207.314761, 12.260997)"><g/></g></g><g fill="#f15c00" fill-opacity="1"><g transform="translate(209.391821, 12.260997)"><g><path d="M 2.71875 -6.6875 L 4.046875 -6.8125 C 4.046875 -7.070312 4.019531 -7.34375 3.96875 -7.625 C 3.925781 -7.914062 3.835938 -8.1875 3.703125 -8.4375 C 3.566406 -8.675781 3.378906 -8.867188 3.140625 -9.015625 C 2.898438 -9.171875 2.578125 -9.242188 2.171875 -9.234375 C 1.847656 -9.234375 1.570312 -9.164062 1.34375 -9.03125 C 1.125 -8.90625 0.945312 -8.742188 0.8125 -8.546875 C 0.664062 -8.335938 0.5625 -8.101562 0.5 -7.84375 C 0.4375 -7.59375 0.40625 -7.347656 0.40625 -7.109375 C 0.40625 -6.859375 0.441406 -6.613281 0.515625 -6.375 C 0.648438 -5.894531 0.875 -5.421875 1.1875 -4.953125 C 1.332031 -4.722656 1.472656 -4.503906 1.609375 -4.296875 C 1.753906 -4.085938 1.894531 -3.882812 2.03125 -3.6875 C 2.09375 -3.601562 2.148438 -3.515625 2.203125 -3.421875 C 2.253906 -3.328125 2.3125 -3.234375 2.375 -3.140625 C 2.476562 -2.960938 2.5625 -2.785156 2.625 -2.609375 C 2.6875 -2.441406 2.71875 -2.285156 2.71875 -2.140625 C 2.71875 -1.847656 2.675781 -1.601562 2.59375 -1.40625 C 2.507812 -1.21875 2.367188 -1.125 2.171875 -1.125 C 2.035156 -1.125 1.925781 -1.171875 1.84375 -1.265625 C 1.757812 -1.359375 1.695312 -1.476562 1.65625 -1.625 C 1.601562 -1.769531 1.570312 -1.9375 1.5625 -2.125 C 1.550781 -2.3125 1.546875 -2.5 1.546875 -2.6875 L 0.21875 -2.5625 C 0.21875 -2.21875 0.238281 -1.882812 0.28125 -1.5625 C 0.332031 -1.25 0.425781 -0.96875 0.5625 -0.71875 C 0.695312 -0.46875 0.890625 -0.269531 1.140625 -0.125 C 1.398438 0.0195312 1.742188 0.09375 2.171875 0.09375 C 2.535156 0.09375 2.835938 0.03125 3.078125 -0.09375 C 3.316406 -0.21875 3.507812 -0.382812 3.65625 -0.59375 C 3.800781 -0.8125 3.898438 -1.054688 3.953125 -1.328125 C 4.015625 -1.597656 4.046875 -1.890625 4.046875 -2.203125 C 4.046875 -2.453125 4.003906 -2.691406 3.921875 -2.921875 C 3.847656 -3.160156 3.753906 -3.394531 3.640625 -3.625 C 3.523438 -3.863281 3.390625 -4.097656 3.234375 -4.328125 C 3.085938 -4.554688 2.9375 -4.789062 2.78125 -5.03125 C 2.65625 -5.21875 2.53125 -5.398438 2.40625 -5.578125 C 2.28125 -5.765625 2.164062 -5.945312 2.0625 -6.125 C 1.96875 -6.289062 1.890625 -6.453125 1.828125 -6.609375 C 1.765625 -6.773438 1.734375 -6.941406 1.734375 -7.109375 C 1.734375 -7.367188 1.765625 -7.582031 1.828125 -7.75 C 1.890625 -7.914062 2.007812 -8.003906 2.1875 -8.015625 C 2.289062 -8.015625 2.378906 -7.972656 2.453125 -7.890625 C 2.523438 -7.816406 2.582031 -7.71875 2.625 -7.59375 C 2.664062 -7.457031 2.691406 -7.3125 2.703125 -7.15625 C 2.710938 -7 2.71875 -6.84375 2.71875 -6.6875 Z M 2.71875 -6.6875 "/></g></g></g><g fill="#f15c00" fill-opacity="1"><g transform="translate(213.819439, 12.260997)"><g><path d="M 0.5 -9.140625 L 0.5 0 L 3.5625 0 L 3.5625 -1.375 L 1.84375 -1.375 L 1.84375 -3.890625 L 3.078125 -3.890625 L 3.078125 -5.359375 L 1.84375 -5.359375 L 1.84375 -7.765625 L 3.5625 -7.765625 L 3.5625 -9.140625 Z M 0.5 -9.140625 "/></g></g></g><g fill="#f15c00" fill-opacity="1"><g transform="translate(217.799329, 12.260997)"><g><path d="M 2.890625 0 L 4.234375 0 L 3.390625 -4.421875 C 3.640625 -4.597656 3.820312 -4.875 3.9375 -5.25 C 4.0625 -5.632812 4.125 -6.050781 4.125 -6.5 C 4.125 -7.363281 3.941406 -8.019531 3.578125 -8.46875 C 3.222656 -8.914062 2.644531 -9.140625 1.84375 -9.140625 L 0.5 -9.140625 L 0.5 0 L 1.84375 0 L 1.84375 -3.859375 L 2.203125 -3.859375 Z M 1.84375 -5.09375 L 1.84375 -7.8125 C 1.9375 -7.8125 2.039062 -7.800781 2.15625 -7.78125 C 2.269531 -7.769531 2.375 -7.71875 2.46875 -7.625 C 2.570312 -7.539062 2.65625 -7.40625 2.71875 -7.21875 C 2.789062 -7.03125 2.828125 -6.773438 2.828125 -6.453125 C 2.828125 -6.128906 2.789062 -5.878906 2.71875 -5.703125 C 2.65625 -5.523438 2.570312 -5.390625 2.46875 -5.296875 C 2.375 -5.210938 2.269531 -5.15625 2.15625 -5.125 C 2.039062 -5.101562 1.9375 -5.09375 1.84375 -5.09375 Z M 1.84375 -5.09375 "/></g></g></g><g fill="#f15c00" fill-opacity="1"><g transform="translate(222.45081, 12.260997)"><g><path d="M 2.9375 -9.140625 L 2.265625 -4.109375 L 2.21875 -3.734375 L 2.140625 -3.734375 L 2.09375 -4.109375 L 1.421875 -9.140625 L 0.109375 -9.140625 L 1.5 0 L 2.84375 0 L 4.234375 -9.140625 Z M 2.9375 -9.140625 "/></g></g></g><g fill="#f15c00" fill-opacity="1"><g transform="translate(226.965484, 12.260997)"><g><path d="M 0.5 -9.140625 L 0.5 0 L 1.84375 0 L 1.84375 -9.140625 Z M 0.5 -9.140625 "/></g></g></g><g fill="#f15c00" fill-opacity="1"><g transform="translate(229.465397, 12.260997)"><g><path d="M 4 -3.140625 L 2.734375 -3.140625 L 2.734375 -1.875 C 2.734375 -1.726562 2.71875 -1.617188 2.6875 -1.546875 C 2.65625 -1.453125 2.601562 -1.367188 2.53125 -1.296875 C 2.46875 -1.234375 2.363281 -1.203125 2.21875 -1.203125 C 2.113281 -1.203125 2.03125 -1.238281 1.96875 -1.3125 C 1.832031 -1.445312 1.757812 -1.632812 1.75 -1.875 L 1.75 -7.265625 C 1.757812 -7.328125 1.769531 -7.382812 1.78125 -7.4375 C 1.789062 -7.5 1.800781 -7.550781 1.8125 -7.59375 C 1.84375 -7.675781 1.890625 -7.753906 1.953125 -7.828125 C 2.015625 -7.898438 2.101562 -7.9375 2.21875 -7.9375 C 2.363281 -7.9375 2.46875 -7.898438 2.53125 -7.828125 C 2.664062 -7.691406 2.734375 -7.503906 2.734375 -7.265625 L 2.734375 -6 L 4 -6 L 4 -7.265625 C 3.976562 -7.640625 3.898438 -7.96875 3.765625 -8.25 C 3.710938 -8.375 3.640625 -8.492188 3.546875 -8.609375 C 3.460938 -8.734375 3.359375 -8.84375 3.234375 -8.9375 C 3.109375 -9.019531 2.957031 -9.085938 2.78125 -9.140625 C 2.613281 -9.203125 2.421875 -9.234375 2.203125 -9.234375 C 1.972656 -9.234375 1.769531 -9.203125 1.59375 -9.140625 C 1.425781 -9.085938 1.28125 -9.019531 1.15625 -8.9375 C 1.03125 -8.84375 0.925781 -8.734375 0.84375 -8.609375 C 0.757812 -8.492188 0.691406 -8.375 0.640625 -8.25 C 0.503906 -7.96875 0.425781 -7.640625 0.40625 -7.265625 L 0.40625 -1.875 C 0.425781 -1.5 0.503906 -1.171875 0.640625 -0.890625 C 0.691406 -0.765625 0.757812 -0.640625 0.84375 -0.515625 C 0.925781 -0.398438 1.03125 -0.300781 1.15625 -0.21875 C 1.414062 -0.0078125 1.765625 0.09375 2.203125 0.09375 C 2.628906 0.09375 2.972656 -0.0078125 3.234375 -0.21875 C 3.359375 -0.300781 3.460938 -0.398438 3.546875 -0.515625 C 3.640625 -0.640625 3.710938 -0.765625 3.765625 -0.890625 C 3.898438 -1.171875 3.976562 -1.5 4 -1.875 Z M 4 -3.140625 "/></g></g></g><g fill="#f15c00" fill-opacity="1"><g transform="translate(233.930321, 12.260997)"><g><path d="M 0.5 -9.140625 L 0.5 0 L 3.5625 0 L 3.5625 -1.375 L 1.84375 -1.375 L 1.84375 -3.890625 L 3.078125 -3.890625 L 3.078125 -5.359375 L 1.84375 -5.359375 L 1.84375 -7.765625 L 3.5625 -7.765625 L 3.5625 -9.140625 Z M 0.5 -9.140625 "/></g></g></g><g fill="#f15c00" fill-opacity="1"><g transform="translate(237.910211, 12.260997)"><g><path d="M 2.71875 -6.6875 L 4.046875 -6.8125 C 4.046875 -7.070312 4.019531 -7.34375 3.96875 -7.625 C 3.925781 -7.914062 3.835938 -8.1875 3.703125 -8.4375 C 3.566406 -8.675781 3.378906 -8.867188 3.140625 -9.015625 C 2.898438 -9.171875 2.578125 -9.242188 2.171875 -9.234375 C 1.847656 -9.234375 1.570312 -9.164062 1.34375 -9.03125 C 1.125 -8.90625 0.945312 -8.742188 0.8125 -8.546875 C 0.664062 -8.335938 0.5625 -8.101562 0.5 -7.84375 C 0.4375 -7.59375 0.40625 -7.347656 0.40625 -7.109375 C 0.40625 -6.859375 0.441406 -6.613281 0.515625 -6.375 C 0.648438 -5.894531 0.875 -5.421875 1.1875 -4.953125 C 1.332031 -4.722656 1.472656 -4.503906 1.609375 -4.296875 C 1.753906 -4.085938 1.894531 -3.882812 2.03125 -3.6875 C 2.09375 -3.601562 2.148438 -3.515625 2.203125 -3.421875 C 2.253906 -3.328125 2.3125 -3.234375 2.375 -3.140625 C 2.476562 -2.960938 2.5625 -2.785156 2.625 -2.609375 C 2.6875 -2.441406 2.71875 -2.285156 2.71875 -2.140625 C 2.71875 -1.847656 2.675781 -1.601562 2.59375 -1.40625 C 2.507812 -1.21875 2.367188 -1.125 2.171875 -1.125 C 2.035156 -1.125 1.925781 -1.171875 1.84375 -1.265625 C 1.757812 -1.359375 1.695312 -1.476562 1.65625 -1.625 C 1.601562 -1.769531 1.570312 -1.9375 1.5625 -2.125 C 1.550781 -2.3125 1.546875 -2.5 1.546875 -2.6875 L 0.21875 -2.5625 C 0.21875 -2.21875 0.238281 -1.882812 0.28125 -1.5625 C 0.332031 -1.25 0.425781 -0.96875 0.5625 -0.71875 C 0.695312 -0.46875 0.890625 -0.269531 1.140625 -0.125 C 1.398438 0.0195312 1.742188 0.09375 2.171875 0.09375 C 2.535156 0.09375 2.835938 0.03125 3.078125 -0.09375 C 3.316406 -0.21875 3.507812 -0.382812 3.65625 -0.59375 C 3.800781 -0.8125 3.898438 -1.054688 3.953125 -1.328125 C 4.015625 -1.597656 4.046875 -1.890625 4.046875 -2.203125 C 4.046875 -2.453125 4.003906 -2.691406 3.921875 -2.921875 C 3.847656 -3.160156 3.753906 -3.394531 3.640625 -3.625 C 3.523438 -3.863281 3.390625 -4.097656 3.234375 -4.328125 C 3.085938 -4.554688 2.9375 -4.789062 2.78125 -5.03125 C 2.65625 -5.21875 2.53125 -5.398438 2.40625 -5.578125 C 2.28125 -5.765625 2.164062 -5.945312 2.0625 -6.125 C 1.96875 -6.289062 1.890625 -6.453125 1.828125 -6.609375 C 1.765625 -6.773438 1.734375 -6.941406 1.734375 -7.109375 C 1.734375 -7.367188 1.765625 -7.582031 1.828125 -7.75 C 1.890625 -7.914062 2.007812 -8.003906 2.1875 -8.015625 C 2.289062 -8.015625 2.378906 -7.972656 2.453125 -7.890625 C 2.523438 -7.816406 2.582031 -7.71875 2.625 -7.59375 C 2.664062 -7.457031 2.691406 -7.3125 2.703125 -7.15625 C 2.710938 -7 2.71875 -6.84375 2.71875 -6.6875 Z M 2.71875 -6.6875 "/></g></g></g></g></g></g><g clip-path="url(#09b8c4d244)"><g clip-path="url(#bd2f103484)"><g transform="matrix(1, 0, 0, 1, 163, 5)"><g clip-path="url(#b40774abcd)"><g clip-path="url(#55fc1cbba3)"><g clip-path="url(#a9355f8739)"><path fill="#5b5b5b" d="M 0.328125 0.476562 L 4.453125 0.476562 L 4.453125 4.601562 L 0.328125 4.601562 Z M 0.328125 0.476562 " fill-opacity="1" fill-rule="nonzero"/></g></g></g></g></g></g></g></g></svg>